<?xml version="1.0" encoding="utf-8"?>
<!-- Generator: Adobe Illustrator 23.0.3, SVG Export Plug-In . SVG Version: 6.00 Build 0)  -->
<svg version="1.1" id="Layer_1" xmlns="http://www.w3.org/2000/svg" xmlns:xlink="http://www.w3.org/1999/xlink" x="0px" y="0px"
	 viewBox="0 0 1000 600" style="enable-background:new 0 0 1000 600;" xml:space="preserve">
<style type="text/css">
	.st0{fill:#FFFFFF;}
	.st1{fill:#FFF8E6;}
	.st2{fill:#8DD8E0;}
	.st3{fill:#B2EBF2;}
	.st4{fill:#F5EACE;}
	.st5{fill:#DBCCA6;}
	.st6{fill:#080C53;}
	.st7{fill:#FF7BA9;}
	.st8{fill:#F3417D;}
	.st9{fill:#00023B;}
	.st10{fill:#E3E3E3;}
	.st11{fill:#F4F4F2;}
	.st12{fill:#262B80;}
	.st13{fill:#FEE952;}
	.st14{fill:#FEC751;}
	.st15{fill:#DEA833;}
	.st16{fill:#EE4A3E;}
	.st17{fill:#FF6A5E;}
	.st18{fill:#FF5447;}
</style>
<rect class="st0" width="1000" height="600"/>
<path class="st1" d="M941.55,532c20.5-2.88,35.2-27.62,27.27-44.68c-7.93-17.06-35.29-23.95-52.1-13.12
	c5.28-23.41-4.19-49.02-24.07-65.07c-19.88-16.05-49.46-21.96-75.15-15.03c-17.12-34.82-55.24-60.79-97.51-66.42
	c-42.26-5.63-87.27,9.28-115.1,38.12c-5.49-34-42.44-60.29-81.02-62.11c-38.58-1.82-76.12,18.12-97.5,46.73
	c-34.14-16.69-75.93-20.53-113.18-10.41c-37.26,10.13-69.49,34.09-87.3,64.9c-57.51-2.25-114.92,28.73-139.23,75.13
	c-9.42-5.65-23.58-0.02-27.79,9.36c-4.21,9.38-0.27,20.41,6.97,28.19c7.24,7.78,16.6,9.36,26.44,14.4H941.55z"/>
<g>
	<g>
		<path class="st2" d="M243.23,203.56c-2.31,0.66-4.43,1.92-6.23,3.52c-1.81,1.6-3.3,3.56-4.49,5.67c-1.19,2.11-2.06,4.41-2.73,6.77
			c-0.67,2.36-1.13,4.78-1.51,7.22c-0.19,1.22-0.36,2.45-0.52,3.68l-0.44,3.7l-0.87,7.41c-0.16,1.23-0.26,2.47-0.37,3.71l-0.33,3.72
			c-0.21,2.48-0.46,4.95-0.64,7.43c-1.41,19.84-1.6,39.76-0.97,59.64l0.11,3.73l0.17,3.73l0.34,7.45c0.05,1.24,0.13,2.48,0.21,3.72
			l0.23,3.72l0.47,7.45l0.56,7.44c0.19,2.48,0.36,4.96,0.59,7.44c0.44,4.96,0.84,9.92,1.34,14.87c1.89,19.82,4.19,39.6,6.51,59.4
			c0.15,1.3-0.78,2.47-2.07,2.62c-1.3,0.15-2.47-0.78-2.62-2.07c0-0.01,0-0.03,0-0.04c-2.02-19.83-4.01-39.68-5.61-59.58
			c-0.43-4.97-0.75-9.95-1.12-14.93c-0.19-2.49-0.33-4.98-0.48-7.47l-0.45-7.47l-0.35-7.48l-0.17-3.74
			c-0.06-1.25-0.12-2.49-0.15-3.74l-0.23-7.49l-0.12-3.74l-0.05-3.75c-0.33-19.97,0.16-39.97,1.88-59.87
			c0.22-2.49,0.5-4.97,0.75-7.45l0.39-3.72c0.13-1.24,0.25-2.48,0.43-3.72l0.99-7.42l0.5-3.71c0.18-1.24,0.37-2.47,0.58-3.71
			c0.42-2.47,0.93-4.95,1.66-7.38c0.73-2.43,1.66-4.81,2.96-7.02c1.29-2.2,2.89-4.24,4.84-5.92c1.94-1.67,4.24-2.99,6.74-3.66
			c0.29-0.08,0.59,0.09,0.67,0.38C243.69,203.18,243.52,203.48,243.23,203.56L243.23,203.56z"/>
		<path class="st2" d="M202.28,168.13c4.05,4.11,7.59,8.71,10.66,13.6c3.07,4.89,5.66,10.06,7.88,15.38
			c4.45,10.64,7.47,21.8,9.95,33c4.91,22.43,8.17,45.23,9.92,68.12c0.22,2.86,0.46,5.72,0.65,8.59l0.5,8.6
			c0.08,1.43,0.18,2.87,0.23,4.3l0.17,4.3c0.11,2.87,0.24,5.73,0.33,8.6l0.21,8.6c0.03,1.43,0.08,2.87,0.1,4.3l0.05,4.3l0.08,8.61
			l-0.01,8.6l-0.01,4.3l-0.05,4.3l-0.1,8.6c-0.12,5.73-0.19,11.47-0.35,17.2l-0.21,8.6l-0.25,8.59l-0.52,17.18
			c-0.04,1.3-1.13,2.33-2.43,2.29c-1.3-0.04-2.33-1.13-2.29-2.43c0-0.01,0-0.01,0-0.02l0-0.02l0.75-17.16l0.36-8.58l0.33-8.58
			c0.23-5.72,0.38-11.44,0.58-17.15l0.21-8.58l0.1-4.29l0.07-4.29l0.12-8.58l0.03-8.58l0.01-4.29c0-1.43-0.03-2.86-0.04-4.29
			l-0.1-8.57c-0.05-2.86-0.15-5.71-0.22-8.57l-0.12-4.28c-0.03-1.43-0.12-2.85-0.18-4.28l-0.38-8.56c-0.15-2.85-0.36-5.7-0.54-8.55
			c-1.44-22.81-4.39-45.52-8.98-67.91c-2.32-11.18-5.17-22.27-9.43-32.84c-2.13-5.28-4.62-10.41-7.57-15.27
			c-2.95-4.86-6.38-9.43-10.32-13.53c-0.21-0.22-0.2-0.56,0.02-0.77C201.73,167.91,202.07,167.92,202.28,168.13z"/>
		<path class="st2" d="M176.55,216.06c2.31-1.53,4.86-2.7,7.53-3.41c2.67-0.72,5.44-1.06,8.2-1.01c1.38,0,2.76,0.14,4.13,0.31
			c1.36,0.22,2.73,0.46,4.06,0.84c2.67,0.71,5.24,1.76,7.69,3.02c2.45,1.27,4.76,2.78,6.95,4.44c2.18,1.68,4.24,3.5,6.17,5.44
			c0.98,0.96,1.88,2,2.81,3c0.47,0.5,0.89,1.04,1.34,1.56c0.44,0.53,0.89,1.05,1.31,1.58c1.68,2.17,3.31,4.37,4.76,6.7
			c1.5,2.29,2.82,4.69,4.11,7.11c0.31,0.61,0.61,1.23,0.91,1.84c0.3,0.62,0.62,1.22,0.89,1.85c0.56,1.25,1.14,2.49,1.65,3.76
			c2.09,5.06,3.82,10.26,5.17,15.55c1.36,5.3,2.39,10.66,3.17,16.06c0.77,5.4,1.3,10.82,1.69,16.25c0.74,10.86,0.9,21.7,1.16,32.51
			l0.73,32.46l1.47,64.91c0.03,1.41-1.08,2.57-2.49,2.6c-1.41,0.03-2.57-1.08-2.6-2.49c0-0.01,0-0.03,0-0.04l-0.47-64.93
			l-0.23-32.46c-0.09-10.83-0.08-21.63-0.65-32.38c-0.29-5.37-0.74-10.73-1.42-16.06c-0.68-5.32-1.62-10.61-2.87-15.82
			c-1.24-5.21-2.86-10.33-4.83-15.3c-0.47-1.25-1.03-2.47-1.55-3.7c-0.25-0.62-0.56-1.21-0.84-1.82c-0.29-0.6-0.57-1.21-0.86-1.81
			c-1.22-2.38-2.47-4.74-3.9-7c-1.38-2.29-2.94-4.46-4.54-6.6c-0.4-0.53-0.84-1.04-1.25-1.56c-0.43-0.51-0.82-1.05-1.28-1.54
			c-0.89-0.99-1.75-2.02-2.69-2.97c-1.85-1.92-3.82-3.72-5.91-5.38c-2.1-1.64-4.31-3.13-6.65-4.39c-4.67-2.51-9.86-4.12-15.16-4.24
			c-2.65-0.09-5.3,0.2-7.87,0.85c-2.57,0.64-5.01,1.72-7.24,3.14l-0.01,0.01c-0.25,0.16-0.59,0.09-0.75-0.17
			C176.23,216.55,176.3,216.22,176.55,216.06z"/>
		<path class="st3" d="M246.71,137.76c-3.13-0.11-5,3.28-8.36,1.48c-2.93,5.53-3.7,13.39-8.74,17.76
			c-3.96,3.43-11.62,2.75-12.73-3.52c-0.84-4.74,6.98-8.83,9.95-12.06c4.12-4.48,9.94-9.58,11.91-15.5
			c2.54-7.62-3.33-13.76-9.4-17.61c-6.59-4.18-7.43,2.79-9.51,8.61c-2.41,6.72-4.38,13.84-8.45,19.82
			c-2.6,3.82-13.33,11.59-13.45,2.21c-0.11-8.08,10.71-17.56,15.12-23.54c3.27-4.44,8.82-13.5,6-19.07
			c-1.97-3.9-14.02-7.88-17.76-4.68c-1.46,1.24-1.34,3.61-1.49,5.36c-0.55,6.46,0.72,12.71-0.41,19.17
			c-0.86,4.92-1.46,11.53-6.36,14.31c-2.5,1.42-4.59,1.61-6.3-0.99c-3.71-5.66,4.12-13.16,5.09-18.28c0.58-3.06,0.35-8.5-1.5-11.32
			c-3.04-4.63-8.79-4.55-13.39-4.87c-0.33,3.16-0.39,6.28-0.38,9.46c0.01,2.89,1.34,9.25-0.33,11.77c-4.23,6.38-3.36-6.85-3.17-9.25
			c0.37-4.56,0.94-9.66-2.07-13.54c-3.62-4.67-12.79-6.77-18.51-5.69c-4.28,0.81-8.52,2.95-12.53,5.53
			c11.53,4.89,20.14,15.03,26.71,25.18c15.33,22.99,30.66,40.41,49.47,59.92c4.71,4.71,6.94,11.89,11.29,17.79
			c3.14-0.69,6.2-1.54,9.36-2.1c-1.67,0.07-8.03,0.33-7.87-0.68c0.11-17.4,20.08-27.66,23.27-44.34
			C252.87,145.37,251.78,137.93,246.71,137.76z"/>
		<path class="st2" d="M166.64,118.48c-6.56-10.15-15.18-20.29-26.71-25.18c-4.03,2.59-7.83,5.63-11.19,8.18
			c-3.62,2.75-7.98,5.65-7.89,10.74c0.15,9.12,16.83,11.04,23.45,12.47c5.77,1.24,15.04-0.06,18.87,5.27
			c-5.71,11.61-27.4,5.3-36.55,2.01c-4.5-1.62-14.25-7.52-17.33-1.87c-1.51,2.77-1.02,12.63,1.3,15.05
			c1.83,1.91,5.69,1.34,8.24,1.84c4.67,0.93,8.65,2.3,13.47,2.28c8.2-0.03,16.86-0.75,24.92-2.16c3.6-0.63,11.73-4.05,14.34,0.18
			c-3.51,6.27-10.5,6.39-16.9,7.08c-7.73,0.84-15.56,1.37-23.34,0.88c-6.61-0.42-15.97-2.11-18.14,6.37
			c-2.59,10.13,9.07,20.61,18.23,20.34c15.35-0.44,29.47-10.2,42.08-17.85c2.97-1.8,10.03-6.07,11.1,0.16
			c0.84,4.91-9.02,9.18-12.39,11.37c-4.66,3.01-16.2,6.72-15.76,13.71c0.97,15.21,35.07,10.1,43,9.58
			c8.36-0.55,16.38-0.73,24.67-2.1c1.11-0.18,2.21-0.41,3.3-0.65c-4.35-5.9-6.58-13.08-11.29-17.79
			C197.29,158.89,181.96,141.47,166.64,118.48z"/>
		<path class="st3" d="M103.93,273.16c9.06-18.12,24.39-31.35,39.02-45.99c11.87-11.87,28.78-14.64,44.3-19.5
			c-5.76-1.44-11.45-5.33-17.1-7.14c-11.34-3.64-22.51-6.13-34.54-5.67c-5.68,0.22-12.04,2.04-16.44,5.82
			c-4.99,4.28-2.6,7.45,3.64,8.75c4.97,1.04,12.7,1.68,15.93,6.53c1.92,2.89,0.48,4.93-2.93,5.9c-3.12,0.88-6.1-0.71-9.15-1.46
			c-4.98-1.23-10.06-2.26-15.1-3.28c-6.02-1.23-12.15-1.76-18.18-0.27c-8.2,2.02-14.95,10.86-15.12,19.41
			c-0.17,8.79,8.72,3.55,13.3,1.81c4.89-1.86,18.68-6.02,20.96,2.1c3.08,11-19.33,10.39-25.01,10.99
			c-10.54,1.11-23.96,1.5-27.15,14.42c-2.8,11.35,13.43,7.12,19.56,7.09c3.65-0.02,7.82,2.34,6.27,6.71
			c-0.72,2.03-4.19,3.59-5.73,4.7c-2.84,2.05-5.1,4.55-7.52,7.12c-9.2,9.76-19.42,26.08-13.17,39.98c1.83,4.07,5.61,7.34,8.91,10.16
			c2.32,1.99,5.35,6.13,8.02,7.89c2.04-3.79,4.65-7.3,6.35-11.26C89.99,315.66,93.48,294.06,103.93,273.16z"/>
		<path class="st2" d="M199.24,236.09c-0.57-6.4-0.48-13.98-4.48-19.57c-1.74-2.42-4.42-4.67-6.46-6.94
			c-0.25,1.59-0.22,0.73-0.11-0.12c0.04,0.04,0.07,0.08,0.11,0.12c0.06-0.39,0.14-0.92,0.24-1.64c-0.43-0.08-0.86-0.17-1.29-0.28
			c-15.52,4.86-32.43,7.64-44.3,19.5c-14.63,14.63-29.96,27.87-39.02,45.99c-10.45,20.9-13.93,42.5-20.9,64.8
			c-1.7,3.96-4.31,7.47-6.35,11.26c0.2,0.13,0.4,0.26,0.6,0.36c2.53,1.34,4.41,0.33,7.64-0.13c5.28-0.76,10.18,1.06,15.41,0.88
			c13.19-0.45,16.74-19.23,16.68-29.62c-0.05-7.8-3.53-15.47-2.98-23.3c13.53,0.72,6.9,21.98,17.56,25.13
			c7.49,2.22,10.07-11.26,10.19-15.82c0.19-7.59-2.15-16.77-4.42-24c-1.7-5.44-13.47-24.75-2.98-27.12
			c13.94-3.15,15.8,29.64,13.07,38.01c5.81,1.83,16.35-12.36,19.2-17.16c2.96-5,4.88-10.21,4.97-16.06c0.1-6.2-2.8-8.96-6.74-13.42
			c-3.38-3.82-11.29-12.67-3.28-16.68c9.38-4.69,15.28,13.69,18.8,19.29c3.2,5.08,6.2,11.36,12.63,6.45
			C199.47,251.09,199.9,243.42,199.24,236.09z"/>
		<path class="st3" d="M292.05,234.84c-6.97-20.21-31.35-21.6-48.08-34.14c-1.33-0.89-2.25-1.96-2.9-3.17
			c-0.06,0.2-0.12,0.4-0.19,0.6c-2.89-1.43-5.03-10.55-7.12-13.63c-3.92-5.78-9.92-9.23-16.52-11.23
			c-11.36-3.44-24.36-0.75-33.45,7.13c-3.4,2.95-7.29,9.74-6.84,14.41c3.75,0.52,8.08-2.43,11.6-3.5c4.71-1.43,9.23-3.85,13.99-4.99
			c6.14-1.47,12.48,0.68,17.54,4.28c-5.04,2.22-10.46,0.01-15.73,0.26c-5.71,0.27-12.89,1.46-17.27,5.46
			c-12.2,11.12,2.84,27.58,2.19,40.42c10.43-9.43,13.09-24.77,26.97-30.97c4.1-1.83,9.33-3.95,13.41-1.15
			c4.82,3.3-0.24,5.82-4.02,8.14c-7.09,4.35-17.17,12.13-19.28,20.47c-0.91,3.6-1.17,8.85,2.21,11.42c4.47,3.4,9.22-0.04,12.29,6.21
			c2.3,4.7,3.17,9.94,6.61,14.12c5.56,6.77,9.99,6.09,12.58-2.67c2.73-9.21,1.44-18.67,1.91-28.06c0.41-8.29,6.84-20.82,17.31-16.95
			c10.33,3.82,3.42,16.49-0.18,22.14c-5.62,8.84-10.95,18.08-10.87,28.91c0.07,9.73,7.57,16.36,17.01,11.11
			c12.07-6.71,7.12-20.46,10.81-31.3c1.35-3.96,3.23-10.34,8.65-7.21c4.53,2.62,3.66,8.64,2.22,12.65
			c-2.5,6.97-4.12,13.87-5.65,21.1c-0.93,4.41-2.88,9.94-1.76,14.55c2.66,10.91,21.36,9.69,30.01,13c4.11,1.57,8.73,2.89,12.49,4.94
			c0.17-0.87,0.34-1.68,0.53-2.44C299.84,289.64,300.59,259.14,292.05,234.84z"/>
		<path class="st2" d="M333.47,233.16c-2.03-4.82-4.45-10.39-8.67-13.76c-4.16-3.33-8.17-2.72-12.98-3.87
			c-8.95-2.13-7.84-12.19,1.06-13.04c5.95-0.57,9.24,4.11,14.37,5.43c4.36-11.87-9.63-17.3-18.62-19.42
			c-11.77-2.77-25.29,5.41-36.52-0.18c-2.2-14.02,17.94-4.55,24.3-4.58c-1.86-4.32-6.42-7.78-9.28-11.48
			c-2.36-3.06-4.03-6.96-7.17-9.37c-8.86-6.8-24.31-5.32-31.02,3.86c-6.08,8.32-4.97,21.36-7.85,30.77c0.65,1.2,1.57,2.28,2.9,3.17
			c16.72,12.54,41.11,13.93,48.08,34.14c8.54,24.31,7.79,54.8,30.45,69.89c1.17-4.78,2.86-7.67,6.01-12.23
			c3.37-4.87,4.53-9.94,4.38-15.85c-0.46-17.78-19.7-28.31-34.38-34c-3.39-13.27,18.28-2.2,22.35-0.17c3.97,1.98,8.92,9.8,13.4,9.49
			c0.42,1.23,1.31,1.95,2.23,2.62C341.13,247.98,336.13,239.48,333.47,233.16z"/>
	</g>
	<g>
		<path class="st3" d="M290.49,535h-99.6V391.83c0-13.7,11.1-24.8,24.8-24.8h50.01c13.7,0,24.8,11.1,24.8,24.8V535z"/>
		<path class="st2" d="M218.32,367.03h-9.02c-10.17,0-18.41,8.24-18.41,18.41V535h9.02V385.44
			C199.91,375.27,208.16,367.03,218.32,367.03z"/>
	</g>
</g>
<g>
	<g>
		<polygon class="st4" points="557.75,385.44 519.97,535.09 529.57,535.09 581.66,385.44 		"/>
		<polygon class="st5" points="577.9,385.44 525.81,535.09 529.57,535.09 581.66,385.44 		"/>
	</g>
	<g>
		<polygon class="st4" points="726.48,385.44 764.27,535.09 754.66,535.09 702.58,385.44 		"/>
		<polygon class="st5" points="702.58,385.44 754.66,535.09 758.1,535.09 706.01,385.44 		"/>
	</g>
	<g>
		<g>
			<path class="st4" d="M757.21,387.36H518.13c-1.06,0-1.92-0.86-1.92-1.92c0-1.06,0.86-1.92,1.92-1.92h239.08
				c1.06,0,1.92,0.86,1.92,1.92C759.13,386.5,758.27,387.36,757.21,387.36z"/>
		</g>
		<path class="st5" d="M757.4,385.44H518.32c-0.78,0-1.44-0.46-1.74-1.13c-0.23,0.32-0.37,0.7-0.37,1.13c0,1.06,0.86,1.92,1.92,1.92
			h239.08c1.06,0,1.92-0.86,1.92-1.92c0-0.28-0.07-0.55-0.18-0.79C758.6,385.13,758.04,385.44,757.4,385.44z"/>
	</g>
</g>
<g>
	<g>
		<polygon class="st4" points="437.59,429.92 403.37,534.84 413.55,534.84 450.04,429.92 		"/>
		<polygon class="st5" points="437.59,429.92 437.52,430.12 447.5,430.12 411.08,534.84 413.55,534.84 450.04,429.92 		"/>
	</g>
	<g>
		<polygon class="st4" points="488.18,429.92 522.39,534.84 512.21,534.84 475.73,429.92 		"/>
		<polygon class="st5" points="475.73,429.92 512.21,534.84 514.44,534.84 477.95,429.92 		"/>
	</g>
	<g>
		<g>
			<path class="st4" d="M422.29,430.24h82.39c1.63,0,2.95-1,2.95-2.24c0-1.24-1.32-2.24-2.95-2.24h-78.62l-47.8-144.68
				c-0.68-1.13-2.43-1.62-3.91-1.1c-1.48,0.52-2.13,1.85-1.45,2.97L422.29,430.24z"/>
		</g>
		<path class="st5" d="M505.99,428.75h-82.39l-49.38-147.29c-0.26-0.43-0.32-0.89-0.22-1.32c-1.21,0.6-1.69,1.78-1.08,2.81
			l49.38,147.29h82.39c1.45,0,2.65-0.8,2.89-1.85C507.12,428.62,506.58,428.75,505.99,428.75z"/>
	</g>
</g>
<g>
	<path class="st6" d="M359.81,61.28c0,0-8.87,33.43-1.31,53.72L337,106.47c0,0-9.26-38.15-4.1-45.97
		C338.06,52.68,359.81,61.28,359.81,61.28z"/>
	<path class="st7" d="M354.86,108.59c-7.28-3.07-9.89-1.9-9.89-1.9s-11.85,0.64-23.59,3.18c4.58,3.45,9.8,5.87,16.05,7.26
		C344.8,118.37,350.95,114.38,354.86,108.59z"/>
	<path class="st2" d="M317.15,110.89c-4.4,1.15-8.57,2.6-11.86,4.42c-6.09,3.38-17.74,27.25-28.37,51.58
		c1.72-0.85,3.52-1.59,5.36-2.2C290.45,144.07,300.86,124.55,317.15,110.89z"/>
	<path class="st3" d="M389.03,160.1c3.57-3.19,7.62-5.93,12-8.12c-17.8-19.33-36.34-38.52-42.53-41.69
		c-1.33-0.68-2.53-1.24-3.64-1.7c-3.91,5.79-10.07,9.77-17.43,8.55c-6.25-1.39-11.48-3.81-16.05-7.26
		c-1.42,0.31-2.83,0.64-4.23,1.01c-16.3,13.67-26.71,33.18-34.86,53.81c7.6-2.51,15.91-2.73,22.37,1.05l6.03-14.66l52.81-11.71
		c0.21-4.94,1.15-10.07,1.15-14.73C372.72,136.46,380.88,148.27,389.03,160.1z"/>
	<path class="st2" d="M364.66,124.65c0,4.66-0.94,9.79-1.15,14.73l4.41-0.98l16.21,26.74c1.5-1.79,3.16-3.47,4.91-5.04
		C380.88,148.27,372.72,136.46,364.66,124.65z"/>
	<path class="st7" d="M439.7,195.12c0,0-18.88-21.65-38.67-43.14c-4.38,2.19-8.43,4.92-12,8.12c12.26,17.79,24.53,35.64,36.55,53.64
		L439.7,195.12z"/>
	<path class="st8" d="M389.03,160.1c-1.76,1.57-3.41,3.25-4.91,5.04l5.02,8.28c9.54,9.84,19.3,20.54,21.95,23.14
		c5.13,5.03,1.35,6.94-2.43,6.22c-0.52-0.1-1.31-0.42-2.26-0.89l12.52,20.64l6.67-8.79C413.57,195.74,401.3,177.89,389.03,160.1z"/>
	<path class="st2" d="M361.84,164.08c0.95,0.06,1.94,0.07,2.95,0.02C363.84,164.02,362.86,164,361.84,164.08z"/>
	<path class="st2" d="M391.65,148.12c-0.02-1.48-0.51-2.81-1.32-4.01c1.25,11.53-13.68,19.45-25.53,19.99
		c7.91,0.65,13.62,6.26,18.11,12.83c-0.17-4.95-0.76-9.76-1.9-14.22C381,162.71,391.81,158.51,391.65,148.12z"/>
	<path class="st2" d="M346.82,143.42c-11.55-1.78-32.33-3.54-35.33,8.99c0.37,0.63,0.87,1.48,1.46,2.52
		C320.9,144.91,334.66,142.56,346.82,143.42z"/>
	<path class="st0" d="M336.4,217.85c0.37,3.22,0.55,6.39,0.47,9.46c0,0,15.79,16.15,36.03,6.46c0,0,1.64-4.56,3.6-11.69
		C363.05,225,348.97,223.16,336.4,217.85z"/>
	<path class="st3" d="M390.33,144.1c-4.96-7.39-22.28-9.77-22.28-9.77l-6.07-9.67l-51.28,16.85v9.57c0,0,0.29,0.47,0.8,1.33
		c3-12.54,23.78-10.77,35.33-8.99c-12.16-0.87-25.93,1.48-33.87,11.51c5.73,10.04,20.58,38.01,23.44,62.92
		c12.57,5.31,26.65,7.14,40.1,4.24c3.09-11.26,6.97-28.92,6.4-45.16c-4.49-6.57-10.19-12.18-18.11-12.83
		c-1.01,0.05-2,0.04-2.95-0.02c1.02-0.07,2-0.06,2.95,0.02C376.65,163.56,391.58,155.64,390.33,144.1z"/>
	<g>
		<path class="st9" d="M399.63,204.85c-0.52,0-1.02-0.29-1.26-0.78l-28.03-56.34c-0.35-0.7-0.06-1.54,0.63-1.89
			c0.69-0.35,1.54-0.06,1.89,0.63l28.03,56.34c0.35,0.7,0.06,1.54-0.63,1.89C400.06,204.81,399.84,204.85,399.63,204.85z"/>
	</g>
	<path class="st10" d="M336.87,227.31c0,0,1.45-3.15,3.32-7.98c-1.27-0.46-2.53-0.95-3.78-1.47
		C336.78,221.08,336.95,224.24,336.87,227.31z"/>
	<path class="st2" d="M337,169.1c-25.08-3.66-18.8-19.68-18.8-19.68v-10.37l-3.48,1.14l-4.02,10.89c0,0,22.15,35.76,25.72,66.77
		c1.25,0.53,2.51,1.02,3.78,1.47C346.08,204.04,356.06,171.88,337,169.1z"/>
	<path class="st7" d="M353.4,196.93c7.51-2.82,17.84-0.94,26.29-6.57c1.88-1.88,4.69-3.76,4.69-6.57
		c8.99,6.22,18.49,11.42,28.87,15.6c-0.36-0.8-1.04-1.74-2.15-2.83c-2.66-2.6-12.42-13.3-21.95-23.14
		c-8.87-9.15-17.55-17.56-20.15-18.02l-71.79,28.48l7.46-18.13c-6.46-3.78-14.77-3.56-22.37-1.05
		c-6.52,16.49-11.62,33.68-17.14,49.14C295.19,221.34,325.23,205.38,353.4,196.93z"/>
	<path class="st8" d="M384.37,183.79c0,2.82-2.82,4.69-4.69,6.57c-8.45,5.63-18.78,3.76-26.29,6.57
		c-28.16,8.45-58.2,24.41-88.24,16.9c5.52-15.46,10.62-32.65,17.14-49.14c-1.84,0.61-3.64,1.34-5.36,2.2
		c-7.91,18.11-15.26,36.49-19.33,46.86c-1.65,4.22,1.44,8.78,5.97,8.78c18,0.03,58.71-2.1,91.11-19.99c0,0,18.08,5.27,18.62-1.91
		c0,0,8.64,0.12,8.1-4.79c0,0,7.29-0.36,6.48-5.74c0,0,12.61,8.87,18.52,11.79c0.95,0.47,1.74,0.79,2.26,0.89
		c2.96,0.56,5.89-0.5,4.58-3.39C402.87,195.21,393.36,190.01,384.37,183.79z"/>
	<polygon class="st8" points="378.57,334.65 378.57,518.1 397.19,535.69 344.16,519.54 344.16,330.35 	"/>
	<polygon class="st2" points="397.19,535.69 344.16,519.54 344.16,504.54 378.57,518.1 	"/>
	<path class="st8" d="M328.99,387.5c0.94-4.69-0.94-10.33-2.82-15.02c-4-11.72-7.83-23.62-11.08-35.66l-14.65,0.7
		c0,0,6.48,26.92,18.22,47.03c0,0-32.93,85.44-7.96,151.14l7.96-14l4.8,1.12C320.9,477.71,328.17,432.61,328.99,387.5z"/>
	<path class="st8" d="M360.35,353.4v-18.75l-45.27,2.17c1.21,4.48,2.52,8.93,3.87,13.36C332.31,354.2,346.86,355.76,360.35,353.4z"
		/>
	<path class="st7" d="M360.35,353.4c-13.5,2.36-28.04,0.8-41.4-3.21c2.28,7.5,4.7,14.94,7.22,22.3c1.88,4.69,3.76,10.33,2.82,15.02
		c-0.82,45.1-8.09,90.21-5.53,135.31l55.11,12.88l-18.22-18.31V353.4z"/>
	<path class="st2" d="M306.46,252.32c1.72-12.59,9.72-23.08,20.38-29.14c-4.36-0.56-9.91,0.14-16.14,4.14
		c-15.11,9.69-29.28,56.72-10.26,110.21c0,0,6.57,3.78,16.99,7.62C308.63,315.04,302.86,283.96,306.46,252.32z"/>
	<path class="st3" d="M386.67,348.65L372.9,233.78c0,0-25.91-10.05-36.03-6.46c0,0-3.82-3.34-10.04-4.14
		c-10.66,6.06-18.66,16.55-20.38,29.14c-3.59,31.63,2.17,62.72,10.98,92.83C334.27,351.36,361.16,357.75,386.67,348.65z"/>
	<path class="st0" d="M336.87,227.31l-5.26,88.67c0,0,16.08,15.44,62.49,2.87l-21.2-85.08C372.9,233.78,359.54,219.42,336.87,227.31
		z"/>
	<path class="st10" d="M336.87,227.31c0,0,15,8.11,30.13,8.11C367.01,235.42,345.35,237.51,336.87,227.31z"/>
	<g>
		<path class="st6" d="M421.97,157.3l-57.65,80.55c-2.43,3.4,0,8.13,4.18,8.13h54.88c1.61,0,3.12-0.75,4.1-2.04l61.03-80.55
			c2.56-3.38,0.15-8.24-4.1-8.24h-58.27C424.49,155.16,422.94,155.96,421.97,157.3z"/>
		<path class="st9" d="M365.68,239.4l57.65-80.55c0.96-1.35,2.52-2.15,4.18-2.15h58.27c1.2,0,2.25,0.4,3.09,1.03
			c-0.86-1.49-2.44-2.58-4.44-2.58h-58.27c-1.66,0-3.21,0.8-4.18,2.15l-57.65,80.55c-1.73,2.42-0.99,5.51,1.09,7.09
			C364.47,243.31,364.41,241.17,365.68,239.4z"/>
	</g>
	<path class="st7" d="M446.45,176.46c4.72-3.5,33.47,31.59,18.89,48.11c-11.61,13.16-24.76,6.57-29.63,3.34
		c-1.63-1.08-2.14-3.26-1.09-4.9c0.48-0.75,1.23-1.46,2.38-1.91c0,0-2.29-7.18,4.32-6.58c0,0-5.67-7.18,2.7-7.66
		c0,0-1.45-7.9,7.58-5.62C459.65,202.16,441.11,180.41,446.45,176.46z"/>
	<path class="st8" d="M340.69,86.25h-9.38l0.8,9.57c3.44,1.45,6.95,2.76,10.57,3.73C340.78,92.96,340.69,86.25,340.69,86.25z"/>
	<path class="st7" d="M342.68,99.56c-3.62-0.97-7.13-2.28-10.57-3.73l1.59,19.11c0,0,20.95,1.12,14.07-5.7
		C345.33,106.8,343.73,103.2,342.68,99.56z"/>
	<path class="st7" d="M352.23,68.69c0,0,6.07,22.59,2.02,24.38c-4.05,1.79-23.48,3.23-29.15-4.31
		C319.44,81.23,327.13,54,352.23,68.69z"/>
	<path class="st6" d="M331.99,71.54c0,0,20.24,9.75,34.41-2.85c14.17-12.59-19.03-37-42.51-21.93
		c-23.48,15.08-13.76,59.59-13.76,59.59l25.1,18.31C335.23,124.67,329.97,82.31,331.99,71.54z"/>
	<circle class="st6" cx="341.09" cy="78.68" r="1.59"/>
	<circle class="st6" cx="350.75" cy="77.87" r="1.59"/>
	<path class="st11" d="M341.97,86.25c0,0,9.54,11.01,11.42-1.5L341.97,86.25z"/>
	<g>
		<g>
			<path class="st12" d="M347.29,69.25c-4.18,0-8.36-0.75-12.27-2.23c-0.18-0.07-0.27-0.27-0.2-0.45c0.07-0.18,0.27-0.27,0.45-0.2
				c6.41,2.43,13.59,2.85,20.24,1.17c3.47-0.87,5.83-2.21,7.24-4.09c1.58-2.12,1.92-5.06,0.87-7.48c-1.05-2.42-3.43-4.18-6.06-4.47
				c-0.19-0.02-0.33-0.2-0.31-0.39c0.02-0.19,0.2-0.34,0.39-0.31c2.87,0.32,5.48,2.24,6.63,4.89c1.15,2.65,0.78,5.86-0.95,8.18
				c-1.5,2.02-4,3.44-7.63,4.36C352.95,68.9,350.12,69.25,347.29,69.25z"/>
		</g>
		<g>
			<path class="st12" d="M327.36,108.27c-0.16,0-0.31-0.11-0.34-0.28c-3.12-14.28-2.71-29.27,1.19-43.36
				c0.05-0.19,0.24-0.3,0.43-0.25c0.19,0.05,0.3,0.25,0.25,0.43c-3.87,13.98-4.28,28.85-1.18,43.02c0.04,0.19-0.08,0.38-0.27,0.42
				C327.41,108.27,327.38,108.27,327.36,108.27z"/>
		</g>
		<g>
			<path class="st12" d="M317.59,109.82c-0.15,0-0.29-0.1-0.34-0.25c-3.18-10.03-4.66-18.95-4.51-27.26
				c0.17-9.97,2.76-19.11,7.47-26.44c2.24-3.48,4.65-6.07,7.37-7.94c0.16-0.11,0.38-0.07,0.49,0.09c0.11,0.16,0.07,0.38-0.09,0.49
				c-2.65,1.82-4.99,4.35-7.18,7.75c-4.65,7.22-7.19,16.23-7.36,26.07c-0.14,8.24,1.32,17.08,4.48,27.03
				c0.06,0.19-0.04,0.38-0.23,0.44C317.66,109.81,317.63,109.82,317.59,109.82z"/>
		</g>
		<g>
			<path class="st12" d="M342.63,63.14c-2.13,0-4.26-0.3-6.28-0.92c-0.19-0.06-0.29-0.25-0.23-0.44c0.06-0.19,0.25-0.29,0.44-0.23
				c6.69,2.05,14.5,0.5,19.9-3.95c0.15-0.12,0.37-0.1,0.5,0.05c0.12,0.15,0.1,0.37-0.05,0.5C352.96,61.39,347.77,63.14,342.63,63.14
				z"/>
		</g>
	</g>
	<polygon class="st8" points="297.2,183.88 281.58,190.21 300.35,176.21 	"/>
	<g>
		<circle class="st2" cx="314.94" cy="119.57" r="2.21"/>
		<path class="st2" d="M359.28,116.51c0,1.22-0.99,2.21-2.21,2.21c-1.22,0-2.21-0.99-2.21-2.21s0.99-2.21,2.21-2.21
			C358.29,114.3,359.28,115.29,359.28,116.51z"/>
		<path class="st2" d="M397.93,150.76c0,1.22-0.99,2.21-2.21,2.21s-2.21-0.99-2.21-2.21c0-1.22,0.99-2.21,2.21-2.21
			S397.93,149.54,397.93,150.76z"/>
		<path class="st2" d="M376.02,129.19c0,1.22-0.99,2.21-2.21,2.21s-2.21-0.99-2.21-2.21c0-1.22,0.99-2.21,2.21-2.21
			S376.02,127.97,376.02,129.19z"/>
		<path class="st2" d="M343.87,121.78c0,1.22-0.99,2.21-2.21,2.21c-1.22,0-2.21-0.99-2.21-2.21s0.99-2.21,2.21-2.21
			C342.88,119.57,343.87,120.56,343.87,121.78z"/>
		<path class="st2" d="M354.15,139.05c0,1.22-0.99,2.21-2.21,2.21c-1.22,0-2.21-0.99-2.21-2.21c0-1.22,0.99-2.21,2.21-2.21
			C353.16,136.84,354.15,137.83,354.15,139.05z"/>
		<path class="st2" d="M378.22,138.01c0,1.22-0.99,2.21-2.21,2.21c-1.22,0-2.21-0.99-2.21-2.21c0-1.22,0.99-2.21,2.21-2.21
			C377.24,135.8,378.22,136.79,378.22,138.01z"/>
		<circle class="st2" cx="357.07" cy="152.97" r="2.21"/>
		<path class="st2" d="M341.18,148.55c0,1.22-0.99,2.21-2.21,2.21s-2.21-0.99-2.21-2.21s0.99-2.21,2.21-2.21
			S341.18,147.33,341.18,148.55z"/>
		<path class="st2" d="M305.75,144.89c0,1.22-0.99,2.21-2.21,2.21c-1.22,0-2.21-0.99-2.21-2.21c0-1.22,0.99-2.21,2.21-2.21
			C304.76,142.68,305.75,143.67,305.75,144.89z"/>
		<path class="st2" d="M293.48,159.07c0,1.22-0.99,2.21-2.21,2.21c-1.22,0-2.21-0.99-2.21-2.21c0-1.22,0.99-2.21,2.21-2.21
			C292.49,156.86,293.48,157.85,293.48,159.07z"/>
		<circle class="st2" cx="303.54" cy="159.07" r="2.21"/>
		<path class="st2" d="M318.25,132.87c0,1.22-0.99,2.21-2.21,2.21s-2.21-0.99-2.21-2.21c0-1.22,0.99-2.21,2.21-2.21
			S318.25,131.65,318.25,132.87z"/>
		<path class="st2" d="M335.73,132.11c0,1.22-0.99,2.21-2.21,2.21c-1.22,0-2.21-0.99-2.21-2.21c0-1.22,0.99-2.21,2.21-2.21
			C334.74,129.9,335.73,130.89,335.73,132.11z"/>
		<path class="st2" d="M341.41,162.73c0,1.22-0.99,2.21-2.21,2.21c-1.22,0-2.21-0.99-2.21-2.21c0-1.22,0.99-2.21,2.21-2.21
			C340.42,160.52,341.41,161.5,341.41,162.73z"/>
		<circle class="st2" cx="357.07" cy="218.83" r="2.21"/>
		<path class="st2" d="M307.96,284.43c0,1.22-0.99,2.21-2.21,2.21s-2.21-0.99-2.21-2.21c0-1.22,0.99-2.21,2.21-2.21
			S307.96,283.21,307.96,284.43z"/>
		<circle class="st2" cx="326.84" cy="280.02" r="2.21"/>
		<path class="st2" d="M313.71,317.8c0,1.22-0.99,2.21-2.21,2.21s-2.21-0.99-2.21-2.21c0-1.22,0.99-2.21,2.21-2.21
			S313.71,316.58,313.71,317.8z"/>
		<circle class="st2" cx="328.05" cy="304.58" r="2.21"/>
		<circle class="st2" cx="357.07" cy="349.78" r="2.21"/>
		<circle class="st2" cx="380.43" cy="326.94" r="2.21"/>
		<path class="st2" d="M318.25,264.86c0,1.22-0.99,2.21-2.21,2.21s-2.21-0.99-2.21-2.21c0-1.22,0.99-2.21,2.21-2.21
			S318.25,263.64,318.25,264.86z"/>
		<path class="st2" d="M307.96,262.65c0,1.22-0.99,2.21-2.21,2.21s-2.21-0.99-2.21-2.21s0.99-2.21,2.21-2.21
			S307.96,261.43,307.96,262.65z"/>
		<path class="st2" d="M323.37,248.19c0,1.22-0.99,2.21-2.21,2.21c-1.22,0-2.21-0.99-2.21-2.21c0-1.22,0.99-2.21,2.21-2.21
			C322.38,245.98,323.37,246.97,323.37,248.19z"/>
		<path class="st2" d="M319.36,295.88c0,1.22-0.99,2.21-2.21,2.21c-1.22,0-2.21-0.99-2.21-2.21c0-1.22,0.99-2.21,2.21-2.21
			C318.37,293.67,319.36,294.66,319.36,295.88z"/>
		<circle class="st2" cx="341.41" cy="341.27" r="2.21"/>
		<circle class="st2" cx="317.15" cy="341.27" r="2.21"/>
		<path class="st2" d="M331.26,329.15c0,1.22-0.99,2.21-2.21,2.21c-1.22,0-2.21-0.99-2.21-2.21c0-1.22,0.99-2.21,2.21-2.21
			C330.27,326.94,331.26,327.93,331.26,329.15z"/>
		<circle class="st2" cx="367.59" cy="336.82" r="2.21"/>
		<path class="st2" d="M384.85,344.58c0,1.22-0.99,2.21-2.21,2.21s-2.21-0.99-2.21-2.21c0-1.22,0.99-2.21,2.21-2.21
			S384.85,343.36,384.85,344.58z"/>
		<circle class="st2" cx="354.08" cy="327.06" r="2.21"/>
		<path class="st2" d="M310.17,243.77c0,1.22-0.99,2.21-2.21,2.21s-2.21-0.99-2.21-2.21c0-1.22,0.99-2.21,2.21-2.21
			S310.17,242.55,310.17,243.77z"/>
		<path class="st2" d="M333.83,236.46c0,1.22-0.99,2.21-2.21,2.21c-1.22,0-2.21-0.99-2.21-2.21c0-1.22,0.99-2.21,2.21-2.21
			C332.84,234.25,333.83,235.24,333.83,236.46z"/>
		<path class="st2" d="M333.83,262.65c0,1.22-0.99,2.21-2.21,2.21c-1.22,0-2.21-0.99-2.21-2.21s0.99-2.21,2.21-2.21
			C332.84,260.44,333.83,261.43,333.83,262.65z"/>
		<path class="st2" d="M324.63,227.31c0,1.22-0.99,2.21-2.21,2.21c-1.22,0-2.21-0.99-2.21-2.21c0-1.22,0.99-2.21,2.21-2.21
			C323.64,225.1,324.63,226.09,324.63,227.31z"/>
		<path class="st2" d="M376.02,219.33c0,1.22-0.99,2.21-2.21,2.21s-2.21-0.99-2.21-2.21c0-1.22,0.99-2.21,2.21-2.21
			S376.02,218.11,376.02,219.33z"/>
		<path class="st2" d="M379.54,204.32c0,1.22-0.99,2.21-2.21,2.21s-2.21-0.99-2.21-2.21c0-1.22,0.99-2.21,2.21-2.21
			S379.54,203.1,379.54,204.32z"/>
		<path class="st2" d="M358.5,206.53c0,1.22-0.99,2.21-2.21,2.21s-2.21-0.99-2.21-2.21c0-1.22,0.99-2.21,2.21-2.21
			S358.5,205.31,358.5,206.53z"/>
		<path class="st2" d="M370.78,212.01c0,1.22-0.99,2.21-2.21,2.21s-2.21-0.99-2.21-2.21s0.99-2.21,2.21-2.21
			S370.78,210.79,370.78,212.01z"/>
		<circle class="st2" cx="343.87" cy="212.65" r="2.21"/>
		<path class="st2" d="M326.84,154.93c0,1.22-0.99,2.21-2.21,2.21c-1.22,0-2.21-0.99-2.21-2.21c0-1.22,0.99-2.21,2.21-2.21
			C325.85,152.72,326.84,153.71,326.84,154.93z"/>
		<path class="st2" d="M360.71,127.69c0,1.22-0.99,2.21-2.21,2.21s-2.21-0.99-2.21-2.21c0-1.22,0.99-2.21,2.21-2.21
			S360.71,126.47,360.71,127.69z"/>
		<path class="st2" d="M369.8,144.89c0,1.22-0.99,2.21-2.21,2.21c-1.22,0-2.21-0.99-2.21-2.21c0-1.22,0.99-2.21,2.21-2.21
			C368.82,142.68,369.8,143.67,369.8,144.89z"/>
		<path class="st2" d="M382.64,151.98c0,1.22-0.99,2.21-2.21,2.21c-1.22,0-2.21-0.99-2.21-2.21c0-1.22,0.99-2.21,2.21-2.21
			C381.65,149.78,382.64,150.76,382.64,151.98z"/>
		<circle class="st2" cx="301.33" cy="129.9" r="2.21"/>
		<path class="st2" d="M290.97,149.78c0,1.22-0.99,2.21-2.21,2.21s-2.21-0.99-2.21-2.21c0-1.22,0.99-2.21,2.21-2.21
			S290.97,148.56,290.97,149.78z"/>
	</g>
	<path class="st10" d="M331.61,315.99c0,0,16.08,15.44,62.49,2.87c-35.8,6.22-57.7-9.11-57.7-9.11l0.47-82.44L331.61,315.99z"/>
	<path class="st8" d="M360.35,389.38c0,0-6.38,2.95-14.33-2.59c0,0,6.51,8.46,14.33,9.4V389.38z"/>
	<path class="st3" d="M310.69,535.69c0,0-5.41-12.67-7.1-26.98l56.76,8.67l18.22,18.31l-59.92-14L310.69,535.69z"/>
	<path class="st2" d="M316.7,518.55l-7.16,14.18c0.69,1.88,1.15,2.96,1.15,2.96l7.96-14l59.92,14L316.7,518.55z"/>
</g>
<g>
	<path class="st3" d="M912.15,537.23H116.96c-0.62,0-1.11-0.5-1.11-1.11c0-0.61,0.5-1.11,1.11-1.11h795.19
		c0.61,0,1.11,0.5,1.11,1.11C913.26,536.73,912.76,537.23,912.15,537.23z"/>
</g>
<g>
	<g>
		<path class="st13" d="M563.56,371.25h47.23c0,0-3.13,11.8-23.72,11.8C566.48,383.05,563.56,371.25,563.56,371.25z"/>
		<path class="st14" d="M608.69,371.25c-1.74,3.25-7.28,10.13-23,10.13c-11.44,0-17.42-3.64-20.48-6.88
			c2.47,3.49,8.38,8.55,21.86,8.55c20.59,0,23.72-11.8,23.72-11.8H608.69z"/>
	</g>
	<g>
		<g>
			<path class="st14" d="M635.44,383.52h-13.79l-2.14-63.49c-0.05-1.36,1.04-2.48,2.4-2.48h13.28c1.36,0,2.44,1.12,2.4,2.48
				L635.44,383.52z"/>
			<path class="st15" d="M635.22,317.55c0.17,0.34,0.27,0.73,0.25,1.14l-2.14,63.49h-11.73l0.05,1.34h13.79l2.14-63.49
				C637.63,318.69,636.56,317.57,635.22,317.55z"/>
		</g>
		<g>
			<path class="st16" d="M610.87,323.52c-0.78,0.84-1.5,1.77-1.88,2.86c-0.37,1.08-0.35,2.36,0.29,3.31
				c0.69,1.03,2.02,1.53,3.26,1.43c1.24-0.1,2.39-0.74,3.32-1.56c3.86-3.4,4.16-9.49,8.47-12.48
				C619.57,316.33,613.94,320.2,610.87,323.52z"/>
			<path class="st17" d="M615.71,316.82c-1.19,0.59-2.36,1.39-3.69,1.37c-1.4-0.01-2.68-1-3.28-2.27c-0.9-1.93-0.3-4.37,1.22-5.85
				c1.52-1.48,3.82-2.03,5.91-1.68c2.1,0.35,4,1.53,5.48,3.05c1.44,1.48,2.63,3.34,3.41,5.25
				C621.57,315.41,619.06,315.16,615.71,316.82z"/>
			<path class="st16" d="M624.22,305.97c0.45-1.78,1.28-3.57,2.79-4.61c1.51-1.05,3.81-1.09,5.03,0.29
				c1.32,1.49,0.86,3.89-0.28,5.53c-1.13,1.64-2.8,2.83-4.02,4.4c-1.4,1.8-2.13,4.02-2.17,6.28
				C623.55,314.8,623.35,309.41,624.22,305.97z"/>
			<path class="st18" d="M620.98,326.32c-0.24,1.31-0.36,2.68-0.07,3.98c0.29,1.31,1.01,2.56,2.14,3.26
				c1.49,0.93,3.55,0.73,4.94-0.33c1.4-1.06,2.12-2.89,1.99-4.64c-0.3-4.17-4.01-7.26-4.6-11.46
				C622.93,318.32,621.44,323.86,620.98,326.32z"/>
			<path class="st17" d="M641.7,317.82c0.64-1.09,0.59-2.51,0.03-3.64c-0.56-1.14-1.56-2.01-2.69-2.59
				c-2.92-1.52-6.52-1.13-9.35,0.41c-1.11,0.6-6.56,4.68-4.77,5.72c0.55,0.32,2.3-0.33,2.91-0.4c1.41-0.15,2.52-0.07,3.87,0.4
				C634.55,318.72,639.46,321.62,641.7,317.82z"/>
			<path class="st13" d="M626.75,314.71c0.78,0.99,0.43,2.57-0.78,3.52c-1.21,0.96-2.83,0.94-3.61-0.05
				c-0.78-0.99-0.43-2.57,0.78-3.52C624.35,313.7,625.97,313.72,626.75,314.71z"/>
		</g>
	</g>
</g>
<g>
	<path class="st4" d="M141.83,144.81h118.24c0,0,2.03-14.72-8.93-17.85s-23.8,8.92-23.8,8.92s1.76-11.56-10.77-7.59
		c0,0-5-10.88-19.18-6.66c-12.86,3.84-8.12,13.78-8.12,13.78s-10.06-4.93-13.31-1.25c-3.05,3.46,0,5.32,0,5.32L141.83,144.81z"/>
	<path class="st4" d="M460.52,193.22h77.12l-21.48-2.03c0,0,9.1-9.89,0.7-10.14c-8.4-0.25-11.31,6.09-11.31,6.09s0.54-6.86-3.6-6.09
		c-4.14,0.77-4.96,3.05-4.96,3.05s0.1-5.07-9.84-5.07c-9.94,0-8.21,9.89-8.21,9.89s-18-5.07-23.71-2.79
		C449.51,188.4,453.42,193.22,460.52,193.22z"/>
</g>
</svg>
