<?xml version="1.0" encoding="utf-8"?>
<!-- Generator: Adobe Illustrator 23.0.3, SVG Export Plug-In . SVG Version: 6.00 Build 0)  -->
<svg version="1.1" id="PIZZA_x2B_Chef" xmlns="http://www.w3.org/2000/svg" xmlns:xlink="http://www.w3.org/1999/xlink" x="0px"
	 y="0px" viewBox="0 0 800.16 803.8" style="enable-background:new 0 0 800.16 803.8;" xml:space="preserve">
<style type="text/css">
	.st0{fill:#F24140;}
	.st1{fill:#FFCFA0;}
	.st2{fill:#D39A72;}
	.st3{fill:#282828;}
	.st4{fill:#FFFFFF;}
	.st5{fill:#B4B7B9;}
</style>
<g>
	<g>
		<path class="st0" d="M441.27,384.93c2.04-4.89,3.26-10.36,1.54-14.97c0.08-0.16,0.11-0.25,0.18-0.42
			c9.67-3.38,22.73-8.53,31.82-20.03c1.69-2.13,5.14-2.37,7.17-0.5c0.09,0.09,0.17,0.16,0.26,0.25c2.37,2.4-0.11,8.64,0.99,10.69
			c1.1,2.07,14.51,2.82,15.72,5.46c1.25,2.75,1.13,4.49,0.69,5.52c-0.34,0.78-12.07,17.62-48.13,26.36
			c-5.86,1.42-8.39,1.6-12.43,1.85c-0.12,0.01-0.23,0.09-0.26,0.2c-5.87,17.59,20.03,31.57,19.79,31.09
			c-3.57-7.34-14.85-20.12-11.1-19.48c3.62-0.38,9.67,1.76,12.05,3.7c13.4,10.86,19.61,24.83,27.46,28.01
			c7.85,3.16-14.74,6.9-36.15-0.41c-26.59-9.09-33.74-25.12-36.3-34c-0.05-0.16,0.05-0.32,0.23-0.34
			c6.09-0.88,11.65-3.92,15.22-10.21c0.1-0.16,0.27-1.48,0.1-1.36c-9.63,6.7-23.43,6.14-33.08,0.23c-1.39-0.85-2.49,0.39-1.65,1.77
			c3.65,6.13,9.27,9.26,15.08,9.71c0.2,0.02,0.32,0.21,0.24,0.38c-4.55,10.31-16.17,30.49-43.37,39.65
			c-29.84,10.07-47.48,4.54-39.63,1.37c7.85-3.18,19.58-25.56,38.47-35.26c4.47-2.29,6.62-1.95,9.06-3.27
			c3.75-0.64-7.53,12.14-11.1,19.48c-0.23,0.48,21.81-13.7,23.07-30.95c0.01-0.16-0.12-0.29-0.27-0.3
			c-3.99-0.26-6.47-0.64-12.33-1.85c-37.37-7.66-47.8-25.58-48.14-26.36c-0.45-1.03-0.57-2.77,0.7-5.52
			c1.21-2.64,14.61-3.39,15.7-5.46c1.1-2.06-1.38-8.29,1-10.69c0.08-0.09,0.16-0.16,0.25-0.25c2.03-1.87,5.48-1.63,7.17,0.5
			c9.1,11.52,22.18,16.66,31.83,20.04c0.2,0.4,0.29,0.62,0.49,1.01c-1.41,4.48-0.22,9.69,1.74,14.37c0.09,0.21-0.09,0.42-0.3,0.38
			c-2.02-0.45-4.06-0.79-6.1-1.27c-5.1-1.2-10.05-2.84-14.86-4.94c-0.18-0.08-0.45,0.16-0.25,0.33c7.1,5.62,16.98,12.83,26.49,12.46
			c2.13-0.09-2.07-18.93,9.07-18.5c2.84,0.11,5.91,0.11,9.22,0.21c2.61,0.07,6.88,0.04,9.49-0.02c3.08-0.08,5.95-0.12,8.61-0.18
			c10.83-0.25,7.45,18.41,9.59,18.5c9.51,0.37,19.38-6.84,26.48-12.46c0.2-0.16-0.05-0.4-0.25-0.33c-4.81,2.1-9.74,3.74-14.86,4.94
			c-2.03,0.48-4.08,0.83-6.09,1.27C441.36,385.35,441.18,385.14,441.27,384.93z"/>
	</g>
	<g>
		<path class="st1" d="M422.18,706.54c2.96,1.92,2.39,5.87-0.54,7.82c-33.26,22.02-101.3,43.56-166.72,36.5
			c-42.67-4.6-62.57-24.12-62.76-24.26c-1.01-0.73-2.24-1.09-3.49-1.02c-9.05,0.5-25.96,3.76-31.58-4.42
			c-0.47-0.69-0.95-1.63-1.42-2.77c-4.8-11.57,4.88-28.64,13.39-37.83c17.42-18.86,43.76-38.44,78.31-42.6
			C335.18,627.35,422.16,706.53,422.18,706.54z"/>
	</g>
	<g>
		<path class="st1" d="M591.57,567.81c0.35,1.81,0.84,5.92,0.37,8.43c-1.35,7.34-7.29,14.92-17.21,22.06
			c-5.67-1.66-12.83-3.27-17.97-4.51L591.57,567.81z"/>
	</g>
	<g>
		<path class="st1" d="M588.5,541.89c1.14,3.24,1.94,11.78-0.57,17.06c-0.04,0.1-0.07,0.2-0.11,0.3c0,0-41.17,31.84-41.38,32.07
			c-4.19-0.82-10.04-1.91-13.29-2.38c7.74-8.4,16.59-25.03,41.85-37.7C579.06,549.22,583.6,545.15,588.5,541.89z"/>
	</g>
	<g>
		<path class="st1" d="M562.39,529.74c3.98,2.9,5.07,13.41,1.4,17.7c-9.32,6.44-17.65,13.78-24.39,20.39
			c-10.84,10.64-17.59,19.42-17.71,19.7c-2.85,0.22-10.63,2.2-13.68,2.94c0,0,13.13-24.18,18.66-30.45
			c4.29-4.85,16.23-13.41,25.2-19.57C558.01,536.26,562.39,529.74,562.39,529.74z"/>
	</g>
	<g>
		<path class="st1" d="M670.07,693.24c2.27,9.27,4.71,21.39,0.36,26.83c-9.96,12.44-24.73,11.34-25.29,11.42
			c-1,0.12-1.98,0.54-2.76,1.16c-5.96,4.71-23.06,18.04-58.88,17.51c-50.58-0.77-98.95-27.84-139.59-54.23
			c-37.63-24.44-96.37-62.56-159.83-69.59c12.4-6.29,32.79-17.31,56.54-18.29c2.33-0.03,58.69,0.03,92.39,2.16
			c47.36,3,60.69-10.59,87.61-10.05c50.04,1.01,81.85,21.53,90,26.1C626.1,634.96,660.28,653.37,670.07,693.24z"/>
	</g>
	<path class="st1" d="M328.48,213.92c-0.07-0.4-2.23-9.86-2.77-9.6l-15.04,7.08c-0.26,0.13-0.2,0.52,0.1,0.53l6.65,0.41
		c0.6,0.04,0.86,0.75,0.41,1.14l-11.13,9.67c-0.54,0.48-0.02,1.33,0.67,1.11l15.49-4.94c0.41-0.13,0.85,0.14,0.89,0.55l0.5,4.39
		c-0.14,0.03-0.28,0.05-0.41,0.09c-3.68,0.99-6.01,3.11-7.5,5.6c-1.69,2.83-2.28,6.15-2.58,8.87c-0.53,5.14,6.93,30.55,10.5,35.5
		c0.72,1.01,3.38,4,5.63-3.15c0.03-0.1,0-0.21-0.07-0.28c-9.73-10.1-0.02-14.71-0.33-20.49c-0.32-5.89-7.97-15.25-10.18-18.4
		c-0.17-0.24-0.14-0.51,0-0.72c0.14-0.21,0.42-0.34,0.73-0.27l10.51,3.21c0.47,0.11,0.9-0.27,0.84-0.73L328.48,213.92z"/>
	<path class="st1" d="M517.76,223.15l-11.13-9.67c-0.45-0.39-0.18-1.1,0.42-1.14l6.63-0.41c0.29-0.01,0.37-0.4,0.11-0.53
		l-15.05-7.08c-0.54-0.26-2.71,9.2-2.77,9.6l-2.89,19.58c-0.07,0.46,0.36,0.84,0.83,0.73l10.83-4.2c0.05-0.01,0.11-0.02,0.16-0.02
		c0.52,0,0.88,0.57,0.57,1.01c-2.21,3.15-10.18,13.5-10.5,19.39c-0.32,5.78,9.4,10.39-0.33,20.49c-0.08,0.08-0.1,0.19-0.07,0.28
		c2.24,7.16,4.9,4.17,5.63,3.15c3.56-4.95,11.03-30.35,10.48-35.5c-0.34-3.22-1.12-7.23-3.58-10.32c-1.47-1.85-3.55-3.36-6.5-4.15
		c-0.13-0.03-0.27-0.05-0.41-0.09l0.5-4.39c0.05-0.41,0.49-0.69,0.9-0.55l15.48,4.94C517.78,224.48,518.31,223.63,517.76,223.15z"/>
	<g>
		<path class="st1" d="M448.65,221.27c-7.87-0.46-13.31,4.63-15.82,7.67c-0.43,0.53-1.32,0.13-1.2-0.54
			c2.94-17.25,13.41-20.36,22.03-15.94c5.01,2.56,12.59,8.8,16.67,12.28c0.57,0.49,1.42-0.14,1.07-0.79
			c-3.14-5.71-9.77-17.19-13.51-19.86c-7.77-5.55-12.58-3.65-16.8-2.98c-14.89,2.35-17.54,26.7-17.77,29.06
			c0.02,0.12,0.03,0.24,0.05,0.36c4.72,12.57,3.24,23.68,1.77,29.61c-0.25,1.02,1.09,1.62,1.71,0.77
			c4.72-6.44,7.12-13.64,6.81-18.96c0.05,0.03,0.08,0.1,0.13,0.13c6.22,3.52,12.78,5.2,19.87,5.56c0.55,0.02,0.71-0.76,0.17-0.94
			c-3.6-1.1-7.05-2.59-10.35-4.33c-0.85-0.46-0.54-1.75,0.42-1.77c9.53-0.25,24.34-1.36,28.54-1.67c0.29-0.02,0.36-0.44,0.08-0.54
			c-5.46-2.1-15.72-3.02-18.53-3.34c-0.51-0.05-0.59-0.53-0.45-1.02c0.71-2.35,11.17-1.32,16.21-1.05c0.2,0.01-1.83-1.37-2.81-1.87
			c0-0.01-0.01-0.01-0.02-0.02c-2.03-1.41-4.08-2.83-6.14-4.19c0-0.01-0.01-0.01-0.01-0.01
			C457.53,224.25,453.15,221.53,448.65,221.27z M392.89,228.39c0.11,0.67-0.76,1.08-1.21,0.54c-2.51-3.03-7.94-8.12-15.82-7.67
			c-0.23,0.01-0.47,0.05-0.7,0.08c-0.25-0.08-0.53-0.08-0.86,0.04c-0.14,0.05-0.28,0.11-0.44,0.16c-3.01,0.64-5.92,2.22-8.36,3.98
			c-2.77,1.6-5.42,3.43-7.92,5.43c-0.02,0.01-0.03,0.02-0.05,0.03c-1.31,0.62-2.61,1.3-3.9,2.04c-0.22,0.12,8.92-1.17,13.33-0.64
			c2.04,0.25,3.69,1.15,4,1.62c0.28,0.42,0.08,0.97-0.45,1.02c-2.81,0.3-12.34,1.77-17.73,3.94c-0.28,0.11-0.22,0.52,0.09,0.53
			c4.17,0.21,18.3,0.87,27.72,1.09c0.97,0.02,1.27,1.32,0.42,1.77c-3.31,1.74-6.74,3.23-10.34,4.33c-0.53,0.16-0.38,0.96,0.17,0.94
			c6.79-0.35,13.11-1.89,19.09-5.12c0.39-0.22,0.88-0.03,0.98,0.38c0.7,2.78,3.13,12.07,7.42,18.62c0.42,0.64,1.46,0.24,1.25-0.5
			c-1.01-3.76-2.19-10.14-1.4-17.88c0.12-1.26,0.3-2.56,0.54-3.89c0.23-1.26,0.51-2.57,0.87-3.88c0.41-1.59,0.92-3.2,1.54-4.84
			c0.01-0.12,0.03-0.24,0.04-0.36c-0.22-2.36-2.88-26.71-17.77-29.06c-4.22-0.67-9.03-2.57-16.8,2.98
			c-3.73,2.66-10.35,14.15-13.5,19.86c-0.36,0.65,0.49,1.28,1.05,0.79c4.08-3.48,11.67-9.72,16.67-12.28
			C379.48,208.03,389.95,211.14,392.89,228.39z M411.96,276v0.01c-0.01,0-0.03-0.01-0.04-0.01c-0.02,0-0.05,0-0.05,0
			c-2.08-0.2-6.1-0.9-10.18-3.59c-5.85-3.86-9.21,0.51-12.04-1.54c-0.97-0.71-1.46-1.5-1.65-2.32c-0.01-0.04-0.01-0.09,0-0.13
			c0.28-1.79,1.13-3.43,2.59-4.71c1.7-1.5,0.51-4.14-1.79-3.94c-7.33,0.66-14.49,3.86-21,7.31c-0.94,0.49-0.57,1.91,0.49,1.87
			c10.28-0.44,14.03,4.33,15.1,6.2c0.22,0.37,0.02,0.85-0.4,0.97c-11.43,3.45-20.87-0.33-23.74-1.71c-0.44-0.21-0.97,0.03-1.02,0.5
			c-1.23,12.76,8.22,40.09,21.27,52.2c0.59,0.54,1.5-0.16,1.07-0.82c-3.78-5.69-10.07-17.35-12.07-34.47
			c-0.07-0.54,0.55-0.94,1.04-0.65c1.25,0.72,2.98,1.45,4.47,1.71c0.29,0.04,0.54,0.22,0.67,0.49c5.96,12.24,22,18.65,37.26,18.65
			c0.11,0,0.22-0.01,0.33-0.01v-0.01c0,0,0,0,0.01,0v0.01c0,0,0,0,0.01,0h0.01v-0.01c0,0,0,0,0.01,0v0.01
			c0.11,0,0.22,0.01,0.33,0.01c15.26,0,31.3-6.42,37.25-18.65c0.13-0.27,0.38-0.45,0.67-0.49c1.5-0.26,3.22-0.99,4.47-1.71
			c0.5-0.28,1.11,0.11,1.06,0.65c-1.78,15.26-6.97,26.18-10.77,32.4c-0.6,0.98,0.73,1.97,1.51,1.14
			c12.14-12.83,20.69-38.29,19.51-50.46c-0.04-0.47-0.58-0.71-1.01-0.5c-2.87,1.38-12.32,5.16-23.75,1.71
			c-0.41-0.12-0.61-0.6-0.4-0.97c1.08-1.87,4.83-6.63,15.11-6.2c1.04,0.04,1.41-1.38,0.49-1.87c-6.53-3.45-13.68-6.64-21-7.31
			c-2.31-0.21-3.5,2.44-1.79,3.94c1.46,1.28,2.29,2.92,2.58,4.71c0.01,0.04,0.01,0.09,0,0.13c-0.2,0.82-0.69,1.61-1.65,2.32
			c-2.83,2.06-6.19-2.32-12.03,1.54c-4.08,2.69-8.1,3.39-10.19,3.59c0,0-0.03,0-0.04,0c-0.02,0-0.04,0.01-0.05,0.01V276
			c-0.09-0.01-0.2-0.02-0.29-0.03C412.16,275.97,412.06,275.99,411.96,276z M412.26,362.44c-0.1,0-0.21,0.01-0.3,0.01v0.01
			c-0.01,0-0.03,0-0.04,0c-0.02,0-0.03,0-0.05,0v-0.01c-8.67-0.16-18.12-3.24-22.22-5.62c-14.16-8.25-29.8-32.27-35.23-44.68
			c-0.39-0.88-1.77-0.48-1.6,0.46c1.39,7.3,3.81,14.77,7.4,21.59c0.14,0.28-0.2,0.55-0.42,0.35c-2.64-2.33-5.31-5.06-7.79-8.23
			c-7.55-9.71-14.25-27.66-14.79-43.23c-0.83-23.8,2.12-69.39,2.12-69.39s0.49-6.35,0.7-6.46c4.85-2.48,7.93-4.18,16.22-6.21
			c13.82-10.06,24.88-10.96,33.72-5.98c7.88-0.82,11.65-0.76,21.9-0.78v-0.01c0.02,0,0.03,0.01,0.05,0.01
			c0.01,0,0.03-0.01,0.04-0.01v0.01c0.11,0,0.21,0,0.3,0c0.1,0,0.2,0,0.29,0v-0.01c0.02,0,0.03,0.01,0.05,0.01
			c0.01,0,0.03-0.01,0.04-0.01v0.01c7.07,0.01,13.52,0.25,19.44,0.67c19.54-9.59,34.86,5.6,35.89,5.89
			c7.25,2.11,12.59,4.4,16.51,6.41c0.22,0.11,0.34,0.32,0.35,0.55l0.36,5.91c0,0,2.94,45.59,2.11,69.39
			c-0.53,15.57-7.23,33.52-14.79,43.23c-2.48,3.18-5.13,5.91-7.79,8.23c-0.23,0.21-0.57-0.07-0.42-0.34
			c3.15-5.99,5.41-12.49,6.84-18.91c0.29-1.32-1.57-1.92-2.11-0.7c-5.42,12.37-13.59,29.85-34.16,42.23
			c-4.03,2.43-13.54,5.46-22.22,5.62v0.01c-0.01,0-0.03,0-0.04,0c-0.02,0-0.03,0-0.05,0v-0.01
			C412.46,362.45,412.36,362.44,412.26,362.44z M422.75,325.58c7.1-3.11,11.95-9.71,11.42-9.52c-2.78,0.97-9.07,3.07-12.03,3.58
			c-0.07,0.01-0.13-0.01-0.18,0.01c-0.05,0.02-0.12,0.04-0.16,0.05c-10.61,1.75-21.99,0.52-31.41-4.25
			c-0.11-0.05-0.2,0.07-0.12,0.15c3.3,4.03,6.98,8.23,11.5,10.08c1.44,0.6,2.59,1.66,3.48,2.89c2.19,3.06,4.72,5.47,7.05,5.47
			c2.52,0,5.18-2.74,7.44-6.07C420.45,326.91,421.53,326.11,422.75,325.58z"/>
	</g>
	<path class="st2" d="M367.78,267.08c0,0-4.38,2.37-6.56,4.54c-1.32,1.32-2.15,2.25-2.6,2.77c0.18-0.07,0.4-0.08,0.6,0.02
		c2.87,1.38,12.31,5.16,23.74,1.71c0.42-0.12,0.62-0.6,0.4-0.97c-1.07-1.87-4.82-6.63-15.1-6.2
		C367.22,268.99,366.85,267.57,367.78,267.08z M471.74,238.97l0.06,0l-0.02,0C471.76,238.97,471.75,238.97,471.74,238.97z
		 M422.31,201.47c4.85-4.18,9.77-6.54,9.77-6.54l-0.01,0c-5.91-0.42-12.35-0.66-19.42-0.67v-0.01c-0.01,0-0.03,0.01-0.04,0.01
		c-0.02,0-0.03-0.01-0.05-0.01v0.01h-0.6v-0.01c-0.01,0-0.03,0.01-0.04,0.01c-0.02,0-0.03-0.01-0.05-0.01v0.01
		c-6.83,0.01-10.78,0-14.99,0.22c-2.25,0.14-4.51,0.31-6.75,0.54c-0.06,0.01-0.11,0.01-0.17,0.02l0,0l0,0c0,0,5.65,2.1,10.97,7.16
		C404.55,205.64,417.05,206,422.31,201.47z M359.68,246.26c0.55-0.06,0.94-0.1,1.09-0.1C361.16,246.15,360.71,246.04,359.68,246.26z
		 M456.26,268.95c-10.28-0.44-14.03,4.33-15.11,6.2c-0.21,0.37-0.01,0.85,0.4,0.97c11.43,3.45,20.88-0.33,23.75-1.71
		c0.18-0.08,0.37-0.08,0.54-0.03c-0.45-0.53-1.28-1.45-2.59-2.76c-1.94-1.94-5.63-4.03-6.4-4.46
		C457.62,267.71,457.25,268.99,456.26,268.95z M487.36,266.2l0.03-0.14c-0.03-2.19-0.08-4.42-0.13-6.66l-0.49-14.5
		c0.01,0.07,0.02,0.13,0.02,0.2c-0.12-3.13-0.26-6.18-0.39-9.07c-0.19-3.91-0.39-7.76-0.56-11.15c-0.37-6.78-0.65-11.19-0.65-11.19
		l-0.17-2.81c-0.14-1.5-0.3-3.11-0.41-3.54c-0.04-0.04-0.07-0.08-0.12-0.11c-3.53-1.8-8.23-3.85-14.43-5.78
		c-0.54-0.14-1.11-0.29-1.7-0.43c0,0,5.52,8.7,3.19,23.19c0.01,0.05,0.02,0.1,0.04,0.15c-0.04-0.07-0.07-0.11-0.1-0.17
		c0.05,0.54-0.65,0.96-1.15,0.54c-4.08-3.48-11.66-9.72-16.67-12.28c-8.62-4.42-19.1-1.31-22.03,15.94
		c-0.12,0.67,0.76,1.08,1.2,0.54c2.51-3.03,7.95-8.12,15.82-7.67c4.49,0.26,8.87,2.98,12.12,5.6c0,0,0.01,0,0.01,0.01
		c2.07,1.36,4.11,2.77,6.14,4.19c0.01,0.01,0.02,0.01,0.02,0.02c0.59,0.3,1.56,0.93,2.2,1.37c3.18,0.59,6.25,1.27,8.54,1.82
		c9.79,2.36-1.63,5.89-1.63,5.89c18.85,13.14-6.53,6.59-11.15,6.08c2.59,0.53,11.37,5.25,14.82,11.32
		c3.03,5.34,3.56,9.76,2.95,13.26c-0.86,2.76-1.91,5.19-3.19,6.94c-0.51,0.63-1.02,1.17-1.49,1.61c-2.84,2.39-6.63,1.74-11.69-4.43
		c0.5,5.33-0.85,13.19-3.54,21.43c-0.01,0.02-0.01,0.04-0.02,0.06c-0.19,0.57-0.38,1.13-0.58,1.7c-0.02,0.05-0.04,0.11-0.06,0.16
		c-0.19,0.54-0.38,1.08-0.58,1.62c-0.02,0.04-0.03,0.09-0.05,0.13c-0.2,0.55-0.41,1.1-0.63,1.65c-0.02,0.05-0.04,0.11-0.06,0.16
		c-0.21,0.54-0.43,1.08-0.65,1.61c-0.03,0.07-0.06,0.13-0.08,0.19c-0.22,0.52-0.44,1.05-0.67,1.57c-0.06,0.13-0.12,0.26-0.17,0.39
		c-0.2,0.46-0.4,0.91-0.61,1.36c-0.07,0.15-0.14,0.3-0.22,0.46c-0.2,0.43-0.4,0.86-0.61,1.28c-0.08,0.16-0.16,0.32-0.24,0.49
		c-0.2,0.41-0.4,0.82-0.61,1.23c-0.09,0.17-0.18,0.34-0.27,0.52c-0.2,0.39-0.41,0.79-0.62,1.17c-0.09,0.16-0.18,0.33-0.27,0.49
		c-0.21,0.39-0.43,0.78-0.65,1.17c-0.09,0.17-0.19,0.33-0.29,0.49c-0.22,0.38-0.44,0.76-0.66,1.13c-0.11,0.19-0.23,0.37-0.34,0.55
		c-0.21,0.34-0.42,0.69-0.64,1.03c-0.12,0.19-0.25,0.38-0.38,0.58c-0.21,0.32-0.41,0.64-0.63,0.96c-0.14,0.21-0.28,0.4-0.42,0.61
		c-0.2,0.29-0.4,0.59-0.61,0.88c-0.13,0.18-0.26,0.36-0.4,0.54c-0.22,0.3-0.44,0.6-0.66,0.89c-0.22,0.29-0.44,0.56-0.66,0.84
		c-0.14,0.18-0.28,0.36-0.42,0.53c-0.29,0.36-0.59,0.7-0.88,1.05c-0.07,0.09-0.15,0.18-0.22,0.26c-0.37,0.43-0.75,0.84-1.13,1.24
		c-0.78,0.83-2.11-0.16-1.51-1.14c0.23-0.37,0.46-0.77,0.7-1.17c0.09-0.15,0.18-0.31,0.27-0.47c0.15-0.26,0.3-0.52,0.45-0.8
		c0.11-0.21,0.23-0.43,0.35-0.64c0.13-0.24,0.26-0.48,0.39-0.72c0.13-0.25,0.26-0.51,0.39-0.77c0.12-0.23,0.23-0.46,0.35-0.69
		c0.14-0.29,0.29-0.59,0.43-0.88c0.11-0.22,0.21-0.44,0.32-0.67c0.15-0.33,0.3-0.66,0.46-1c0.09-0.21,0.19-0.42,0.28-0.64
		c0.16-0.37,0.32-0.74,0.48-1.12c0.08-0.2,0.17-0.4,0.25-0.61c0.17-0.41,0.33-0.82,0.49-1.24c0.07-0.19,0.15-0.38,0.22-0.58
		c0.17-0.45,0.34-0.9,0.5-1.36c0.06-0.17,0.12-0.35,0.19-0.53c0.17-0.5,0.35-1,0.52-1.51c0.05-0.14,0.09-0.29,0.14-0.43
		c0.18-0.56,0.36-1.12,0.53-1.69c0.03-0.09,0.05-0.18,0.08-0.26c1.02-3.45,1.91-7.26,2.55-11.42c0.13-1.02,0.26-2.09,0.39-3.2
		c0.02-0.15-0.02-0.28-0.08-0.4l-0.94-0.25c-0.01,0.01-0.02,0.01-0.03,0.02c-0.16,0.46-5.85,16.17-20.97,24.68
		c-0.09,0.11-0.19,0.23-0.29,0.34c0.16-0.05,0.32-0.11,0.46-0.16c0.03-0.01,0.04,0.01,0.03,0.04c0,0.01-0.01,0.03-0.02,0.04
		c-0.01,0.03-0.03,0.07-0.05,0.11c-0.02,0.03-0.04,0.06-0.06,0.1c-0.03,0.05-0.06,0.1-0.1,0.16c-0.03,0.05-0.07,0.1-0.11,0.16
		c-0.04,0.05-0.08,0.12-0.13,0.18c-0.23,0.31-0.54,0.7-0.93,1.14c-0.01,0.01-0.02,0.02-0.02,0.03c-0.13,0.15-0.28,0.31-0.43,0.48
		c-0.03,0.03-0.06,0.06-0.09,0.1c-0.15,0.17-0.32,0.34-0.49,0.52c-0.02,0.02-0.05,0.05-0.07,0.07c-0.77,0.79-1.69,1.65-2.75,2.51
		c-0.01,0.01-0.02,0.02-0.03,0.02c-0.24,0.2-0.49,0.39-0.74,0.58c-0.06,0.04-0.11,0.09-0.17,0.13c-0.24,0.18-0.49,0.37-0.75,0.55
		c-0.06,0.05-0.13,0.09-0.2,0.14c-0.26,0.18-0.53,0.37-0.8,0.54h0c-1.13,0.81-2.3,1.52-3.55,2.03c-1.21,0.5-2.21,1.35-3.03,2.34
		c-0.01,0.01-0.01,0.02-0.02,0.03c-0.13,0.2-0.27,0.39-0.41,0.58c-0.01,0.01-0.01,0.02-0.02,0.02c-0.14,0.19-0.28,0.39-0.42,0.57
		c0,0-0.01,0.01-0.01,0.01c-0.14,0.19-0.29,0.38-0.43,0.56c-0.01,0.01-0.02,0.03-0.03,0.04c-0.14,0.17-0.28,0.34-0.42,0.51
		c-0.01,0.02-0.03,0.03-0.04,0.05c-0.14,0.16-0.27,0.32-0.41,0.48c-0.02,0.02-0.04,0.04-0.06,0.07c-0.13,0.15-0.27,0.29-0.4,0.43
		c-0.03,0.03-0.06,0.06-0.09,0.09c-0.13,0.13-0.25,0.26-0.38,0.38c-0.04,0.04-0.08,0.07-0.12,0.11c-0.12,0.11-0.23,0.22-0.35,0.32
		c-0.05,0.04-0.09,0.08-0.14,0.12c-0.11,0.09-0.22,0.19-0.33,0.27c-0.06,0.04-0.11,0.08-0.17,0.12c-0.1,0.08-0.2,0.15-0.31,0.22
		c-0.07,0.05-0.13,0.08-0.2,0.13c-0.09,0.06-0.19,0.12-0.28,0.18c-0.07,0.04-0.15,0.08-0.22,0.12c-0.09,0.05-0.17,0.1-0.26,0.14
		c-0.08,0.04-0.16,0.07-0.24,0.11c-0.08,0.03-0.16,0.07-0.23,0.1c-0.09,0.03-0.18,0.06-0.27,0.08c-0.07,0.02-0.14,0.05-0.21,0.07
		c-0.11,0.03-0.21,0.04-0.32,0.06c-0.05,0.01-0.11,0.02-0.16,0.03c-0.16,0.02-0.32,0.03-0.47,0.03c-2.04,0-4.23-1.85-6.22-4.36
		c-0.28-0.36-0.56-0.73-0.83-1.11c-0.89-1.23-2.05-2.29-3.48-2.89c-0.56-0.23-1.1-0.49-1.64-0.79c-0.19-0.11-0.38-0.24-0.56-0.35
		c-0.34-0.2-0.67-0.4-1-0.63c-0.23-0.16-0.45-0.34-0.68-0.51c-0.27-0.2-0.55-0.4-0.81-0.62c-0.25-0.21-0.5-0.43-0.74-0.65
		c-0.23-0.2-0.46-0.4-0.69-0.61c-0.27-0.25-0.53-0.52-0.8-0.79c-0.19-0.19-0.39-0.38-0.57-0.57c-0.3-0.31-0.58-0.62-0.87-0.94
		c-0.15-0.16-0.3-0.32-0.44-0.48c-0.33-0.37-0.66-0.75-0.98-1.13c-0.09-0.11-0.19-0.21-0.28-0.32c-0.4-0.47-0.8-0.95-1.19-1.42
		c-15.34-8.63-20.98-24.7-20.98-24.7v0l-0.96,0.26c-0.03,0.05-0.05,0.11-0.07,0.18c0,0,0,0.01,0,0.01
		c-0.01,0.07-0.02,0.14-0.01,0.21c2,17.12,8.29,28.78,12.07,34.47c0.43,0.65-0.48,1.36-1.07,0.82c-0.41-0.38-0.81-0.77-1.21-1.18
		c-0.8-0.81-1.59-1.69-2.36-2.6c-2.62-3.13-5.04-6.81-7.2-10.78c-0.09-0.17-0.19-0.34-0.28-0.52c-2.07-3.85-3.89-7.94-5.4-12.03
		c-0.09-0.23-0.18-0.47-0.26-0.7c-2.65-7.3-4.3-14.51-4.61-20.16c-0.03-0.57-0.05-1.14-0.06-1.68c0-0.9,0.03-1.76,0.11-2.56
		c-4.73,5.79-8.35,6.75-11.13,4.92c-0.85-0.75-1.95-1.88-2.94-3.39c-0.77-1.33-1.44-2.92-2.03-4.66c-0.88-3.64-0.55-8.37,2.76-14.2
		c3.44-6.07,12.23-10.79,14.82-11.32c-4.61,0.51-30,7.06-11.15-6.08c0,0-11.42-3.53-1.63-5.89c2.01-0.48,4.62-1.06,7.37-1.6
		c1.08-0.6,2.17-1.17,3.26-1.69c0.02-0.01,0.03-0.02,0.05-0.03c2.5-2,5.14-3.83,7.92-5.43c2.45-1.76,5.35-3.34,8.36-3.98
		c0.15-0.05,0.29-0.11,0.44-0.16c0.33-0.12,0.61-0.12,0.86-0.04c0.23-0.02,0.47-0.07,0.7-0.08c7.89-0.46,13.31,4.63,15.82,7.67
		c0.45,0.53,1.32,0.13,1.21-0.54c-2.95-17.25-13.41-20.36-22.05-15.94c-5,2.56-12.59,8.8-16.67,12.28c-0.46,0.4-1.1,0.05-1.13-0.44
		c-0.02,0.03-0.02,0.04-0.04,0.07c0.01-0.05,0.02-0.1,0.04-0.15c-2.33-14.49,3.19-23.19,3.19-23.19c-0.06,0.01-0.11,0.03-0.17,0.04
		c-7.11,1.76-10.36,3.27-14.26,5.26c-0.57,0.29-1.16,0.6-1.78,0.91c-0.21,0.11-0.7,6.46-0.7,6.46s-0.89,16.64-1.52,30.16
		c-0.01-0.12-0.02-0.24-0.02-0.35c-0.29,7-0.53,14.49-0.65,21.58l0,0.06c0,0.21-0.01,0.42-0.01,0.62l0,0
		c-0.07,4.69-0.09,9.19-0.02,13.25c0,0.07,0,0.14,0,0.21c0.01,0.61,0.02,1.21,0.04,1.8c0,0.1,0.01,0.19,0.01,0.29
		c0.02,0.59,0.03,1.18,0.05,1.75c0.54,15.57,7.24,33.52,14.79,43.23c2.48,3.18,5.14,5.91,7.79,8.23c0.23,0.21,0.57-0.07,0.42-0.35
		c-3.59-6.82-6-14.29-7.4-21.59c-0.17-0.94,1.21-1.34,1.6-0.46c5.43,12.41,21.07,36.42,35.23,44.68c4.1,2.38,13.55,5.46,22.22,5.62
		v0.01h0.1v-0.01c0.1,0,0.21-0.01,0.3-0.01c0.1,0,0.2,0.01,0.29,0.01v0.01h0.06v-0.01c8.67-0.16,18.12-3.24,22.22-5.62
		c0.71-0.42,1.42-0.86,2.13-1.31c0,0,0,0,0.01-0.01c4.16-2.68,7.78-5.58,10.96-8.59l0,0c0.42-0.39,0.82-0.79,1.22-1.19
		c0.04-0.04,0.09-0.08,0.13-0.13c0.37-0.37,0.74-0.75,1.1-1.12c0.07-0.07,0.13-0.14,0.2-0.21c0.34-0.36,0.68-0.72,1.01-1.08
		c0.08-0.09,0.16-0.17,0.24-0.26c0.32-0.35,0.63-0.7,0.93-1.05c0.09-0.1,0.18-0.2,0.26-0.3c0.29-0.34,0.58-0.68,0.87-1.02
		c0.09-0.11,0.19-0.23,0.28-0.34c0.27-0.33,0.54-0.67,0.81-1c0.1-0.12,0.2-0.24,0.29-0.37c0.26-0.33,0.51-0.66,0.76-0.98
		c0.1-0.13,0.2-0.26,0.29-0.38c0.24-0.32,0.48-0.64,0.71-0.97c0.1-0.14,0.2-0.27,0.29-0.41c0.23-0.32,0.45-0.64,0.67-0.95
		c0.1-0.14,0.19-0.28,0.29-0.42c0.21-0.31,0.43-0.62,0.63-0.94c0.1-0.15,0.19-0.29,0.29-0.44c0.2-0.31,0.4-0.62,0.6-0.92
		c0.09-0.15,0.19-0.3,0.28-0.44c0.19-0.3,0.38-0.61,0.57-0.91c0.09-0.15,0.19-0.31,0.28-0.46c0.18-0.3,0.36-0.59,0.53-0.89
		c0.09-0.16,0.18-0.31,0.28-0.47c0.17-0.29,0.34-0.58,0.5-0.87c0.09-0.16,0.18-0.32,0.27-0.48c0.16-0.28,0.32-0.57,0.47-0.85
		c0.09-0.17,0.18-0.33,0.27-0.5c0.15-0.28,0.3-0.55,0.45-0.83c0.09-0.17,0.18-0.34,0.27-0.51c0.14-0.27,0.28-0.54,0.42-0.81
		c0.09-0.17,0.18-0.35,0.26-0.52c0.13-0.26,0.27-0.52,0.4-0.78c0.09-0.17,0.17-0.34,0.25-0.51c0.13-0.26,0.26-0.52,0.38-0.78
		c0.08-0.17,0.17-0.34,0.25-0.52c0.12-0.25,0.24-0.5,0.35-0.74c0.09-0.19,0.18-0.38,0.26-0.56c0.11-0.23,0.21-0.46,0.32-0.68
		c0.09-0.2,0.18-0.4,0.28-0.6c0.09-0.21,0.19-0.41,0.28-0.62c0.1-0.22,0.2-0.44,0.3-0.66c0.08-0.18,0.16-0.36,0.24-0.54
		c0.12-0.27,0.24-0.54,0.36-0.81c0.05-0.12,0.11-0.24,0.16-0.35c0.17-0.39,0.34-0.78,0.51-1.16c0.54-1.23,2.4-0.62,2.11,0.7
		c-0.19,0.87-0.41,1.74-0.63,2.61c-0.03,0.13-0.07,0.27-0.11,0.4c-0.2,0.76-0.41,1.53-0.64,2.29c-0.02,0.08-0.05,0.15-0.07,0.23
		c-0.25,0.84-0.51,1.67-0.79,2.5c0,0.01-0.01,0.02-0.01,0.04c-0.29,0.88-0.61,1.76-0.93,2.63l0,0c-0.57,1.77-1.29,3.47-2.4,5.68
		c-0.4,0.85-0.82,1.7-1.26,2.54c-0.03,0.06-0.03,0.12-0.02,0.18c0,0.02,0.01,0.03,0.02,0.05c0.01,0.03,0.03,0.06,0.06,0.09
		c0.01,0.02,0.03,0.03,0.05,0.04c0.04,0.03,0.08,0.04,0.13,0.05l0,0c0.06,0,0.12-0.02,0.17-0.07c2.64-2.33,5.31-5.06,7.79-8.23
		c7.55-9.71,14.25-27.66,14.79-43.23C487.44,278.18,487.45,272.35,487.36,266.2z M412.26,351.77c-12.01,0-21.75-3.86-21.75-8.63
		c0-4.76,9.74-8.63,21.75-8.63c12.01,0,21.75,3.86,21.75,8.63C434.01,347.91,424.27,351.77,412.26,351.77z M463.82,246.15
		c0.15,0,0.54,0.04,1.09,0.1C463.88,246.04,463.43,246.15,463.82,246.15z"/>
	<g>
		<path class="st3" d="M443.49,242.37c3.31,1.74,6.75,3.23,10.35,4.33c0.53,0.17,0.38,0.96-0.17,0.94
			c-7.09-0.36-13.65-2.03-19.87-5.56c-0.05-0.03-0.08-0.1-0.13-0.13c0.32,5.32-2.09,12.52-6.81,18.96
			c-0.62,0.85-1.96,0.25-1.71-0.77c1.47-5.94,2.95-17.04-1.77-29.61c-0.02-0.12-0.03-0.24-0.05-0.36
			c0.23-2.36,2.88-26.71,17.77-29.06c4.22-0.67,9.04-2.57,16.8,2.98c3.74,2.66,10.36,14.15,13.51,19.86
			c0.36,0.65-0.5,1.28-1.07,0.79c-4.08-3.48-11.66-9.72-16.67-12.28c-8.62-4.42-19.1-1.31-22.03,15.94
			c-0.12,0.67,0.76,1.08,1.2,0.54c2.51-3.03,7.95-8.12,15.82-7.67c4.49,0.26,8.87,2.98,12.12,5.6c0,0,0.01,0,0.01,0.01
			c2.07,1.36,4.11,2.77,6.14,4.19c0.01,0.01,0.02,0.01,0.02,0.02c0.98,0.5,3,1.88,2.81,1.87c-5.04-0.26-15.5-1.29-16.21,1.05
			c-0.14,0.49-0.07,0.97,0.45,1.02c2.82,0.32,13.07,1.24,18.53,3.34c0.28,0.11,0.22,0.52-0.08,0.54c-4.2,0.32-19.01,1.42-28.54,1.67
			C442.94,240.62,442.64,241.91,443.49,242.37z"/>
	</g>
	<path class="st3" d="M709.01,621.14c2.04,21.91-10.75,64.97-22.08,74.3c-0.5,0.41-1.06,0.72-1.64,0.92
		c0.51,9.43,0.29,23.23-4.34,30.3c-9.82,14.99-24.62,19-29.4,19.94c-4.95,3.37-23.63,18.11-64.13,18.11c-1.13,0-2.27-0.01-3.44-0.02
		c-45.99-0.7-90.2-25.22-128.21-48.41c-45.23,22.2-118.99,50.8-184.56,50.8c-9.09,0-18.18-0.47-27.24-1.48
		c-38.93-4.36-52.32-20.96-58.34-24.8c-8.11,0.25-31.8-0.27-41-13.66c-2.65-3.85-12.67-16.34-13.82-17.71
		c-0.67-0.8-16.67-20.16-20.47-59.53c-0.84-8.68-0.2-52.17,19.84-70.08c-0.25-0.75-0.35-1.56-0.24-2.38
		c11.89-90.76,65.65-155.26,72.29-158.59c1.14-0.58,2-2.58,2.63-4.05c0.35-0.79,0.67-1.54,1.09-2.26c2.39-4.11,7.98-6.04,15.05-8.12
		c1.12-0.34,2.62-0.78,3.24-1.02c1.07-0.72,57.47-25.14,64.39-27.99c16.64-6.83,26.96-10.89,28.61-14.5
		c2.65-5.82,8.49-7.54,14.46-8.84c0.12-0.02,0.21-0.13,0.22-0.26c0.21-4.21,1.58-7.55,4.18-10.18c0.2-0.2,0.4-0.39,0.61-0.59
		c2.58-2.38,5.89-3.82,9.42-4.1c0.23-0.02,0.34-0.28,0.18-0.46c-1.01-1.14-1.98-2.31-2.89-3.48c-8.81-11.32-15.6-30.05-16.89-46.29
		h-0.08c-4.27,0-8.3-2.2-11.05-6.01c-4.72-6.56-13.34-34.65-12.47-42.98c0.11-1.01,0.24-1.99,0.41-2.94
		c0.02-0.13-0.05-0.26-0.17-0.3c-3.13-1.14-5.66-3.6-6.85-6.8c-1.64-4.38-0.51-9.19,2.86-12.39c0.08-0.07,0.11-0.16,0.08-0.26
		c-0.71-2.34-0.64-4.93,0.47-7.47c1.12-2.57,3.26-4.56,5.8-5.75l13.02-6.13v-0.17c-0.23-0.05-0.47-0.11-0.71-0.16
		c-3.33-0.84-33.2-8.82-47.76-29.14c-17.71-24.72-9.64-49.25,3.98-64.19c2.43-2.65,2.41-2.73,2.09-4.61
		c-1.1-6.43,0.59-15.3,9.08-24.26c7.52-7.93,16.29-6.47,22.77-7.48c6.12-0.97,11.9-1.87,20.42-8.08
		c11.58-8.43,26.93-20.84,48.33-20.84c10.23,0,20.44,3.35,31.42,7.89c10.57,4.35,18.45,8.43,24.78,11.7
		c9.58,4.95,15.84,9.23,22.53,9.23c1.51,0,3.11-0.13,4.87-0.4c2.39-0.36,4.8-0.54,7.16-0.54c11.79,0,24.74,2.27,34.23,10.89
		c7.33,6.67,12.08,16.3,15.93,26.27c6.53,16.86,7.65,33.45,12.65,39.9c1.73,2.23,3.39,4.19,5,6.08
		c6.62,7.78,17.53,17.29,16.93,33.37c-0.46,12.22-10.31,23.24-26.47,29.73c-0.11,0.04-0.17,0.15-0.16,0.27
		c0.07,0.94,0.01,1.88-0.17,2.81c-0.07,0.37-0.16,0.74-0.27,1.1c-0.02,0.1,0,0.21,0.08,0.27c3.38,3.2,4.5,8,2.87,12.39
		c-1.21,3.2-3.72,5.66-6.85,6.8c-0.13,0.04-0.2,0.17-0.17,0.3c0.16,0.95,0.3,1.94,0.4,2.94c0.87,8.33-7.75,36.42-12.47,42.98
		c-2.75,3.82-6.78,6.01-11.04,6.01h-0.01c-1.29,16.24-8.08,34.97-16.89,46.29c-1.03,1.33-2.13,2.63-3.27,3.9
		c0.27-0.02,0.54-0.02,0.82-0.02c4.01,0,7.83,1.47,10.72,4.15c0.22,0.2,0.42,0.39,0.62,0.6c2.59,2.62,3.97,5.96,4.18,10.17
		c0.01,0.13,0.1,0.24,0.22,0.26c5.96,1.3,11.81,3.02,14.46,8.84c1.62,3.56,12.91,7.67,31.19,15.68
		c9.83,4.12,33.94,14.51,45.68,19.62c3.22,1.32,5.79,2.39,7.85,3.27c0.12-0.02,0.23-0.04,0.36-0.05l-0.08,0.17
		c5.2,2.26,7.01,3.27,7.79,3.8c0.62,0.24,2.12,0.69,3.24,1.02c7.06,2.09,12.66,4.01,15.05,8.12c0.41,0.72,0.74,1.47,1.08,2.26
		c0.63,1.47,1.5,3.47,2.64,4.05c4.09,2.04,18.74,21.25,32.37,46.68c12.99,24.24,29.51,62.47,34.87,107.37
		c1.52,1.53,3.19,3.46,4.87,5.88C702.87,589.03,707.33,603.27,709.01,621.14z M677.19,663.91c2.54,5.18,20.96-2.57,19.6-42.54
		c-1.24-36.56-17.15-43.69-17.3-43.76c-0.44-0.17-0.54-0.27-0.91-0.55c-32.52-24.38-66.01-25.11-78.13-24.43
		c-0.07,2.08-0.38,4.28-1.03,6.57c1.62,2.65,4.86,9.39,3.3,18.62c-1.46,8.59-6.66,16.77-15.44,24.43
		c5.82,1.96,11.74,4.13,17.65,6.55C642.2,624.03,666.27,641.63,677.19,663.91z M670.42,720.07c4.35-5.44,1.91-17.56-0.36-26.83
		c-9.79-39.87-43.96-58.27-59.46-66.97c-8.15-4.57-39.96-25.09-90-26.1c-26.92-0.54-40.24,13.05-87.61,10.05
		c-33.7-2.13-90.06-2.2-92.39-2.16c-23.75,0.98-44.14,12.01-56.54,18.29c63.46,7.04,122.2,45.16,159.83,69.59
		c40.64,26.38,89.01,53.45,139.59,54.23c35.83,0.53,52.92-12.8,58.88-17.51c0.78-0.62,1.76-1.04,2.76-1.16
		C645.69,731.41,660.46,732.51,670.42,720.07z M676.22,562.01c-11.2-69.21-46.43-120.53-56.16-131.82c0,0-14.08,13.33-15.01,12.71
		c-2.5-1.66,7.19-20.6,7.19-20.6c0.05-0.09,0.13-0.15,0.2-0.23c-0.07-6.94-7.13-8.03-10.65-7.24c-3.19-0.95-38.13-18.68-80.72-36.63
		c-1.94-0.82-4.09-0.57-5.87,0.38c-0.02,0.02-0.04,0.03-0.07,0.05c-3.28,3.24-9.89,12.88-21.62,20.59
		c-0.01,0.01-0.01,0.01-0.02,0.01c-5.44,3.05-15.42,7.2-19.55,8.87c11.43,4.71,34.45,12.8,47.86,17.88
		c2.51,0.95,3.32,4.18,2.35,6.68c-0.04,0.12-22.3,63.62-33.53,160.33c-0.29,2.5,3.22,1.23,5.66,0.6c0.01,0,0.02-0.01,0.03-0.01
		c0.02-0.04,0.04-0.11,0.07-0.15l21.39-38.42c0.38-0.69,0.89-1.27,1.51-1.73l42.06-31.18c1.25-0.92,2.85-1.27,4.38-0.95
		c0.49,0.11,0.94,0.29,1.37,0.52c9.81-37.08,30.38-71.01,32.9-69.37c2.51,1.64-15.48,35.01-23.57,86.31
		c-0.05,0.34-0.05,0.66-0.13,0.98c4.13-2.32,8.36-4.42,12.67-6.19c2.34-0.97,5.02-0.2,6.49,1.85c0.16,0.23,1.88,2.68,3.25,6.55
		C610.85,540.93,647.22,542.43,676.22,562.01z M591.94,576.24c0.47-2.51-0.02-6.62-0.37-8.43l-34.8,25.97
		c5.13,1.24,12.3,2.85,17.97,4.51C584.65,591.16,590.59,583.58,591.94,576.24z M587.93,558.95c2.5-5.29,1.71-13.82,0.57-17.06
		c-4.89,3.26-9.44,7.33-13.5,9.36c-25.26,12.67-34.11,29.3-41.85,37.7c3.25,0.47,9.1,1.57,13.29,2.38
		c0.22-0.23,41.38-32.07,41.38-32.07C587.86,559.15,587.88,559.05,587.93,558.95z M563.79,547.44c3.67-4.29,2.58-14.79-1.4-17.7
		c0,0-4.38,6.51-10.52,10.7c-8.97,6.16-20.91,14.72-25.2,19.57c-5.54,6.28-18.66,30.45-18.66,30.45c3.06-0.74,10.83-2.72,13.68-2.94
		c0.12-0.27,6.86-9.06,17.71-19.7C546.14,561.22,554.47,553.87,563.79,547.44z M541.4,180.68c0.55-14.92-6.4-19.03-15.57-30.87
		c-9.18-11.83-12.01-28.43-18.67-44.9c-6.68-16.47-22.59-35.12-45.58-31.65c-19.5,2.95-26.38-7.07-56.98-19.67
		c-30.58-12.61-51.92-3.48-70.48,10.03c-20.25,14.74-30.52,5.92-41,16.98c-11.87,12.52,2.48,13.9-9.47,27.02
		c-11.95,13.13-18.09,33.57-4.73,52.23c12.06,16.84,38.1,24.02,41.37,24.87c0.17,0.04,0.35-0.08,0.35-0.26
		c0.05-2.69,0.08-20.08-7.08-22.68c-10.59-3.85-20.82-13.09-26.02-22.49c-0.15-0.29,0.24-0.6,0.48-0.36
		c11.45,11.16,30.95,12.56,44.09,9.47c5.45-1.28-23.13-9.14-32.95-38.99c-0.07-0.21,0.16-0.4,0.32-0.23
		c12.21,12.81,28.82,21.51,46.31,25.55c26.38,6.08,23.18,0.36,22.09-0.36c-2.1-1.36-29.71-27.78-30.82-55.84
		c0.05,0,10.97,25.12,30.02,37.58c28.23,18.47,56.23,19.62,49.04-10.65c-0.08-0.32,0.36-0.49,0.51-0.2
		c6.62,12.51,25.62,26.04,45.33,32.87c14.75,5.12,16.62,2.66,32.45,10.9c13.55,7.04,23.06,24.12,32.76,26.94
		c0.28,0.08,0.27,0.48-0.02,0.53c-7.62,1.47-15.32,0.58-21.45-3.5c-0.17-0.12-0.42,0-0.42,0.22l-0.29,26.15
		c0,0.12,0.09,0.24,0.21,0.27C520.11,203.99,540.84,195.54,541.4,180.68z M517.08,224.26c0.7,0.22,1.23-0.63,0.67-1.11l-11.13-9.67
		c-0.45-0.39-0.18-1.1,0.42-1.14l6.63-0.41c0.29-0.01,0.37-0.4,0.11-0.53l-15.05-7.08c-0.54-0.26-2.71,9.2-2.77,9.6l-2.89,19.58
		c-0.07,0.46,0.36,0.84,0.83,0.73l10.83-4.2c0.05-0.01,0.11-0.02,0.16-0.02c0.52,0,0.88,0.57,0.57,1.01
		c-2.21,3.15-10.18,13.5-10.5,19.39c-0.32,5.78,9.4,10.39-0.33,20.49c-0.08,0.08-0.1,0.19-0.07,0.28c2.24,7.16,4.91,4.17,5.63,3.15
		c3.56-4.95,11.03-30.35,10.48-35.5c-0.34-3.22-1.12-7.23-3.58-10.32c-1.47-1.85-3.55-3.36-6.5-4.15c-0.13-0.03-0.27-0.05-0.41-0.09
		l0.5-4.39c0.05-0.41,0.49-0.69,0.9-0.55L517.08,224.26z M483.39,585.83c12.37-91.32,26.55-138.49,31.24-152.34
		c-10.39-5.5-25.78-11.17-36.1-15.5c6.34,6.76,14.14,15.84,18.58,21.04c0.01,0.02,0.02,0.04,0.03,0.07
		c0.99,2.31,1.12,4.72,0.73,6.75c-2.21,11.34-17.14,11.34-22.76,11.34c-5.26,0-15.88-0.61-27.74-4.67
		c-15.55-5.31-27.34-13.93-35.1-24.83c-0.11-0.15-0.34-0.15-0.45,0c-10.1,14.08-24.21,24.95-40.98,30.67
		c-10.21,3.49-22.39,5.58-32.6,5.58c-5.14,0-18.14,0.39-20.15-9.97c-0.85-4.32,2.26-11.04,7.96-13.77c0,0,0.01,0,0.02-0.01
		c0.58-0.35,1.7-1.52,2.98-3c0.01-0.01,13.13-22.03,27.43-27.35c0.24-0.1,0.24-0.42-0.01-0.51c-4.62-1.46-29.72-12.04-45.31-28.78
		c-1.97-2.11-5.05-2.85-7.73-1.78c-32.51,13.03-76.16,35.12-79.35,36.06c-10.58-1.06-10.44,4.79-9.35,6.69c0,0,11.4,22.5,8.83,24.06
		c-12.51-18.48-19.09-14.18-21.4-11.41c-5.88,7.05-15.5,20.03-25.5,37.89c-12.49,22.28-23.8,55.08-30.44,98.27
		c26.83-11.96,59.46-21.02,103.98-19.2c-0.92-31.64-25.21-96.85-22.23-98.15c2.6-1.13,32.42,65.62,33.14,99.49
		c1.91,0.29,8.82,0.11,13.52,11.84c2.43,6.05,4.95,20.54,3.43,36.66c-0.79,8.3,7.92,14.28,15.36,10.53
		c12.75-6.44,25.37-11.16,46.12-12.44c0.05,0,0.1,0,0.15,0c0.54-0.01,65.21,0.63,99.91,2.72c13.02,0.78,21.62-0.58,29.28-2.09
		C476.06,598.29,482.4,593.1,483.39,585.83z M499.64,370.93c0.45-1.03,0.57-2.77-0.69-5.52c-1.21-2.64-14.62-3.39-15.72-5.46
		c-1.1-2.06,1.38-8.29-0.99-10.69c-0.09-0.09-0.17-0.16-0.26-0.25c-2.02-1.87-5.48-1.63-7.17,0.5
		c-9.09,11.51-22.15,16.65-31.82,20.03c-0.08,0.17-0.11,0.26-0.18,0.42c1.72,4.6,0.5,10.07-1.54,14.97
		c-0.09,0.21,0.09,0.42,0.32,0.38c2.01-0.45,4.06-0.79,6.09-1.27c5.11-1.2,10.05-2.84,14.86-4.94c0.2-0.08,0.45,0.16,0.25,0.33
		c-7.1,5.62-16.98,12.83-26.48,12.46c-2.14-0.09,1.24-18.75-9.59-18.5c-2.66,0.07-5.54,0.11-8.61,0.18
		c-2.61,0.07-6.88,0.09-9.49,0.02c-3.32-0.1-6.38-0.1-9.22-0.21c-11.14-0.44-6.94,18.41-9.07,18.5
		c-9.52,0.37-19.39-6.84-26.49-12.46c-0.2-0.16,0.07-0.4,0.25-0.33c4.81,2.1,9.76,3.74,14.86,4.94c2.04,0.48,4.08,0.83,6.1,1.27
		c0.22,0.04,0.39-0.17,0.3-0.38c-1.96-4.68-3.15-9.89-1.74-14.37c-0.2-0.39-0.29-0.61-0.49-1.01c-9.66-3.38-22.73-8.53-31.83-20.04
		c-1.69-2.13-5.13-2.37-7.17-0.5c-0.09,0.09-0.17,0.16-0.25,0.25c-2.38,2.4,0.1,8.64-1,10.69c-1.1,2.07-14.5,2.82-15.7,5.46
		c-1.26,2.75-1.14,4.49-0.7,5.52c0.34,0.78,10.77,18.71,48.14,26.36c5.86,1.21,8.34,1.59,12.33,1.85c0.15,0.01,0.28,0.14,0.27,0.3
		c-1.26,17.25-23.3,31.43-23.07,30.95c3.58-7.34,14.86-20.12,11.1-19.48c-2.44,1.33-4.59,0.98-9.06,3.27
		c-18.89,9.7-30.62,32.08-38.47,35.26c-7.85,3.16,9.79,8.7,39.63-1.37c27.2-9.17,38.83-29.34,43.37-39.65
		c0.08-0.17-0.04-0.36-0.24-0.38c-5.82-0.46-11.43-3.58-15.08-9.71c-0.84-1.38,0.26-2.62,1.65-1.77c9.66,5.92,23.46,6.47,33.08-0.23
		c0.17-0.12,0,1.2-0.1,1.36c-3.57,6.3-9.12,9.33-15.22,10.21c-0.17,0.02-0.28,0.17-0.23,0.34c2.57,8.87,9.71,24.91,36.3,34
		c21.41,7.31,44,3.58,36.15,0.41c-7.85-3.18-14.06-17.14-27.46-28.01c-2.38-1.94-8.43-4.08-12.05-3.7
		c-3.74-0.64,7.54,12.14,11.1,19.48c0.24,0.48-25.67-13.51-19.79-31.09c0.03-0.11,0.14-0.18,0.26-0.2
		c4.05-0.25,6.57-0.42,12.43-1.85C487.56,388.55,499.3,371.71,499.64,370.93z M495.99,162.07c0-0.1-0.04-0.18-0.12-0.24
		c-28.92-20.28-138.01-20.28-166.93,0c-0.08,0.05-0.12,0.14-0.12,0.24c0.05,1.66,0.59,16.68,0.6,33.18c0,0.22,0.23,0.36,0.41,0.25
		c3.43-2.04,28.2-15.56,82.57-15.56c57.5,0,79.31,13.67,82.55,15.97c0.19,0.13,0.44-0.01,0.44-0.24
		C495.4,179.17,495.93,163.77,495.99,162.07z M487.3,283.08c0.83-23.8-2.11-69.39-2.11-69.39l-0.36-5.91
		c-0.01-0.24-0.13-0.45-0.35-0.55c-3.92-2-9.26-4.3-16.51-6.41c-1.03-0.29-16.35-15.49-35.89-5.89c-5.92-0.42-12.37-0.66-19.44-0.67
		v-0.01c-0.01,0-0.03,0.01-0.04,0.01c-0.02,0-0.03-0.01-0.05-0.01v0.01c-0.1,0-0.2,0-0.29,0c-0.1,0-0.2,0-0.3,0v-0.01
		c-0.01,0-0.03,0.01-0.04,0.01c-0.02,0-0.03-0.01-0.05-0.01v0.01c-10.26,0.02-14.02-0.03-21.9,0.78
		c-8.83-4.98-19.89-4.08-33.72,5.98c-8.29,2.03-11.37,3.73-16.22,6.21c-0.21,0.11-0.7,6.46-0.7,6.46s-2.95,45.59-2.12,69.39
		c0.54,15.57,7.24,33.52,14.79,43.23c2.48,3.18,5.14,5.91,7.79,8.23c0.23,0.21,0.57-0.07,0.42-0.35c-3.59-6.82-6-14.29-7.4-21.59
		c-0.17-0.94,1.21-1.34,1.6-0.46c5.43,12.41,21.07,36.42,35.23,44.68c4.1,2.38,13.55,5.46,22.22,5.62v0.01c0.02,0,0.03,0,0.05,0
		c0.01,0,0.03,0,0.04,0v-0.01c0.1,0,0.21-0.01,0.3-0.01c0.1,0,0.2,0.01,0.29,0.01v0.01c0.02,0,0.03,0,0.05,0c0.01,0,0.03,0,0.04,0
		v-0.01c8.68-0.16,18.18-3.2,22.22-5.62c20.57-12.38,28.75-29.86,34.16-42.23c0.54-1.23,2.4-0.62,2.11,0.7
		c-1.44,6.43-3.69,12.92-6.84,18.91c-0.14,0.27,0.2,0.54,0.42,0.34c2.65-2.33,5.31-5.06,7.79-8.23
		C480.07,316.6,486.77,298.65,487.3,283.08z M421.63,714.36c2.94-1.95,3.5-5.89,0.54-7.82c-0.02-0.01-87.01-79.19-174.83-68.58
		c-34.54,4.17-60.88,23.74-78.31,42.6c-8.5,9.19-18.18,26.25-13.39,37.83c0.48,1.14,0.96,2.09,1.42,2.77
		c5.62,8.18,22.53,4.92,31.58,4.42c1.25-0.07,2.48,0.29,3.49,1.02c0.2,0.14,20.1,19.66,62.76,24.26
		C320.34,757.92,388.38,736.38,421.63,714.36z M330.54,234.22c0.47,0.11,0.9-0.27,0.84-0.73l-2.9-19.58
		c-0.07-0.4-2.23-9.86-2.77-9.6l-15.04,7.08c-0.26,0.13-0.2,0.52,0.1,0.53l6.65,0.41c0.6,0.04,0.86,0.75,0.41,1.14l-11.13,9.67
		c-0.54,0.48-0.02,1.33,0.67,1.11l15.49-4.94c0.41-0.13,0.85,0.14,0.89,0.55l0.5,4.39c-0.14,0.03-0.28,0.05-0.41,0.09
		c-3.68,0.99-6.01,3.11-7.5,5.6c-1.69,2.83-2.28,6.15-2.58,8.87c-0.53,5.14,6.93,30.55,10.5,35.5c0.72,1.01,3.38,4,5.63-3.15
		c0.03-0.1,0-0.21-0.07-0.28c-9.73-10.1-0.02-14.71-0.33-20.49c-0.32-5.89-7.97-15.25-10.18-18.4c-0.17-0.24-0.14-0.51,0-0.72
		c0.14-0.21,0.42-0.34,0.73-0.27L330.54,234.22z M264.39,625.18c7.2-15.8,5.48-37.34,3.27-50.98c-0.97-5.97-5.71-10.67-11.71-11.46
		c-7.85-1.04-15.5-1.51-22.94-1.51c-37.71,0-67.78,12.29-88.99,24.8c-19.07,11.25-22.27,39.4-21.48,60.09
		c1.27,33.26,17.02,43.14,21.76,37.46c4.01-4.82,8.9-10.17,14.64-15.62c17.48-16.58,46.64-37.27,86.34-41.74
		C251.68,625.49,258.02,625.14,264.39,625.18z"/>
	<path class="st4" d="M696.79,621.37c1.36,39.97-17.05,47.71-19.6,42.54c-10.92-22.27-35-39.87-72.28-55.12
		c-5.92-2.41-11.83-4.59-17.65-6.55c8.79-7.66,13.99-15.84,15.44-24.43c1.57-9.23-1.67-15.97-3.3-18.62
		c0.65-2.28,0.97-4.49,1.03-6.57c12.13-0.69,45.61,0.04,78.13,24.43c0.37,0.28,0.48,0.38,0.91,0.55
		C679.64,577.68,695.55,584.81,696.79,621.37z"/>
	<path class="st4" d="M620.05,430.19c9.73,11.29,44.96,62.6,56.16,131.82c-28.99-19.58-65.36-21.08-77.52-20.2
		c-1.37-3.87-3.09-6.32-3.25-6.55c-1.47-2.04-4.15-2.82-6.49-1.85c-4.31,1.77-8.54,3.87-12.67,6.19c0.08-0.32,0.08-0.64,0.13-0.98
		c8.09-51.3,26.08-84.67,23.57-86.31c-2.52-1.64-23.09,32.29-32.9,69.37c-0.44-0.23-0.88-0.41-1.37-0.52
		c-1.53-0.33-3.13,0.02-4.38,0.95l-42.06,31.18c-0.62,0.46-1.13,1.04-1.51,1.73l-21.39,38.42c-0.02,0.04-0.04,0.11-0.07,0.15
		c-0.01,0-0.02,0.01-0.03,0.01c-2.44,0.63-5.95,1.9-5.66-0.6c11.23-96.71,33.49-160.21,33.53-160.33c0.97-2.5,0.16-5.73-2.35-6.68
		c-13.41-5.08-36.43-13.17-47.86-17.88c4.13-1.67,14.12-5.83,19.55-8.87c0.01,0,0.01,0,0.02-0.01
		c11.74-7.71,18.34-17.35,21.62-20.59c0.02-0.02,0.04-0.03,0.07-0.05c1.78-0.95,3.94-1.2,5.87-0.38
		c42.59,17.95,77.53,35.68,80.72,36.63c3.51-0.78,10.58,0.3,10.65,7.24c-0.07,0.08-0.14,0.14-0.2,0.23c0,0-9.69,18.93-7.19,20.6
		C605.97,443.53,620.05,430.19,620.05,430.19z"/>
	<path class="st4" d="M525.82,149.81c9.18,11.83,16.13,15.94,15.57,30.87c-0.55,14.86-21.28,23.31-36.23,18.96
		c-0.12-0.03-0.21-0.15-0.21-0.27l0.29-26.15c0-0.22,0.25-0.34,0.42-0.22c6.12,4.08,13.82,4.97,21.45,3.5
		c0.29-0.05,0.3-0.46,0.02-0.53c-9.7-2.82-19.21-19.9-32.76-26.94c-15.84-8.23-17.71-5.78-32.45-10.9
		c-19.71-6.83-38.71-20.36-45.33-32.87c-0.15-0.29-0.59-0.12-0.51,0.2c7.19,30.27-20.81,29.11-49.04,10.65
		c-19.04-12.45-29.96-37.58-30.02-37.58c1.11,28.06,28.72,54.48,30.82,55.84c1.09,0.72,4.3,6.44-22.09,0.36
		c-17.49-4.04-34.1-12.74-46.31-25.55c-0.15-0.17-0.38,0.02-0.32,0.23c9.82,29.85,38.4,37.71,32.95,38.99
		c-13.14,3.09-32.64,1.69-44.09-9.47c-0.24-0.24-0.63,0.07-0.48,0.36c5.2,9.4,15.42,18.64,26.02,22.49
		c7.16,2.6,7.13,19.99,7.08,22.68c0,0.18-0.17,0.3-0.35,0.26c-3.27-0.85-29.31-8.04-41.37-24.87c-13.36-18.65-7.22-39.1,4.73-52.23
		c11.95-13.12-2.39-14.5,9.47-27.02c10.48-11.06,20.75-2.24,41-16.98c18.55-13.51,39.89-22.63,70.48-10.03
		c30.59,12.61,37.48,22.62,56.98,19.67c22.99-3.47,38.9,15.18,45.58,31.65C513.82,121.39,516.65,137.98,525.82,149.81z"/>
	<path class="st4" d="M514.62,433.49c-4.69,13.84-18.87,61.01-31.24,152.34c-0.99,7.28-7.33,12.46-14.53,13.88
		c-7.66,1.51-16.26,2.87-29.28,2.09c-34.69-2.09-99.36-2.73-99.91-2.72c-0.05,0-0.1,0-0.15,0c-20.75,1.28-33.38,6-46.12,12.44
		c-7.44,3.75-16.15-2.23-15.36-10.53c1.52-16.12-1-30.62-3.43-36.66c-4.7-11.74-11.6-11.55-13.52-11.84
		c-0.72-33.87-30.54-100.62-33.14-99.49c-2.98,1.31,21.31,66.52,22.23,98.15c-44.53-1.83-77.15,7.23-103.98,19.2
		c6.65-43.2,17.96-75.99,30.44-98.27c10.01-17.86,19.62-30.84,25.5-37.89c2.32-2.77,8.9-7.07,21.4,11.41
		c2.57-1.56-8.83-24.06-8.83-24.06c-1.09-1.9-1.23-7.74,9.35-6.69c3.19-0.95,46.84-23.04,79.35-36.06c2.69-1.07,5.76-0.33,7.73,1.78
		c15.59,16.74,40.69,27.32,45.31,28.78c0.25,0.09,0.25,0.41,0.01,0.51c-14.3,5.32-27.42,27.34-27.43,27.35
		c-1.28,1.48-2.4,2.65-2.98,3c-0.01,0.01-0.02,0.01-0.02,0.01c-5.7,2.73-8.81,9.45-7.96,13.77c2.01,10.36,15.01,9.97,20.15,9.97
		c10.2,0,22.38-2.09,32.6-5.58c16.77-5.72,30.88-16.59,40.98-30.67c0.11-0.15,0.34-0.15,0.45,0c7.75,10.9,19.54,19.52,35.1,24.83
		c11.87,4.06,22.48,4.67,27.74,4.67c5.62,0,20.56,0,22.76-11.34c0.39-2.03,0.26-4.45-0.73-6.75c-0.01-0.02-0.02-0.04-0.03-0.07
		c-4.44-5.21-12.24-14.28-18.58-21.04C488.85,422.32,504.24,427.99,514.62,433.49z"/>
	<path class="st4" d="M495.87,161.83c0.08,0.05,0.12,0.14,0.12,0.24c-0.07,1.7-0.59,17.1-0.61,33.6c0,0.23-0.25,0.37-0.44,0.24
		c-3.24-2.29-25.05-15.97-82.55-15.97c-54.37,0-79.14,13.52-82.57,15.56c-0.18,0.11-0.41-0.03-0.41-0.25
		c-0.01-16.5-0.54-31.52-0.6-33.18c0-0.1,0.04-0.18,0.12-0.24C357.86,141.55,466.95,141.55,495.87,161.83z"/>
	<path class="st4" d="M267.66,574.2c2.21,13.64,3.93,35.17-3.27,50.98c-6.37-0.03-12.71,0.32-19.1,1.03
		c-39.71,4.47-68.87,25.17-86.34,41.74c-5.74,5.45-10.63,10.8-14.64,15.62c-4.74,5.69-20.49-4.2-21.76-37.46
		c-0.79-20.69,2.41-48.84,21.48-60.09c21.21-12.51,51.28-24.8,88.99-24.8c7.44,0,15.08,0.47,22.94,1.51
		C261.95,563.53,266.7,568.23,267.66,574.2z"/>
	<g>
		<path class="st3" d="M390.38,315.45c9.42,4.77,20.79,6,31.41,4.25c0.04-0.01,0.11-0.03,0.16-0.05c0.05-0.02,0.12,0,0.18-0.01
			c2.96-0.51,9.24-2.61,12.03-3.58c0.53-0.2-4.32,6.41-11.42,9.52c-1.22,0.53-2.29,1.33-3.02,2.4c-2.26,3.33-4.92,6.07-7.44,6.07
			c-2.33,0-4.86-2.41-7.05-5.47c-0.89-1.23-2.04-2.29-3.48-2.89c-4.51-1.85-8.2-6.05-11.5-10.08
			C390.19,315.52,390.27,315.4,390.38,315.45z"/>
	</g>
	<g>
		<path class="st3" d="M411.96,276c0.1-0.01,0.2-0.02,0.3-0.03c0.1,0.01,0.21,0.02,0.29,0.03v0.01c0.01,0,0.03-0.01,0.05-0.01
			c0.01,0,0.04,0,0.04,0c2.09-0.2,6.11-0.9,10.19-3.59c5.84-3.86,9.2,0.51,12.03-1.54c0.97-0.71,1.46-1.5,1.65-2.32
			c0.01-0.04,0.01-0.09,0-0.13c-0.28-1.79-1.12-3.43-2.58-4.71c-1.71-1.5-0.51-4.14,1.79-3.94c7.32,0.66,14.48,3.86,21,7.31
			c0.92,0.49,0.55,1.91-0.49,1.87c-10.28-0.44-14.03,4.33-15.11,6.2c-0.21,0.37-0.01,0.85,0.4,0.97
			c11.43,3.45,20.88-0.33,23.75-1.71c0.43-0.21,0.97,0.03,1.01,0.5c1.17,12.17-7.37,37.63-19.51,50.46
			c-0.78,0.83-2.11-0.16-1.51-1.14c3.8-6.22,8.98-17.14,10.77-32.4c0.05-0.54-0.55-0.94-1.06-0.65c-1.25,0.72-2.97,1.45-4.47,1.71
			c-0.29,0.04-0.54,0.22-0.67,0.49c-5.95,12.24-21.99,18.65-37.25,18.65c-0.11,0-0.22-0.01-0.33-0.01v-0.01c-0.01,0-0.01,0-0.01,0
			v0.01h-0.01c-0.01,0-0.01,0-0.01,0v-0.01c-0.01,0-0.01,0-0.01,0v0.01c-0.11,0-0.22,0.01-0.33,0.01c-15.26,0-31.3-6.42-37.26-18.65
			c-0.13-0.27-0.38-0.45-0.67-0.49c-1.49-0.26-3.22-0.99-4.47-1.71c-0.49-0.28-1.11,0.11-1.04,0.65c2,17.12,8.29,28.78,12.07,34.47
			c0.43,0.65-0.48,1.36-1.07,0.82c-13.05-12.12-22.5-39.45-21.27-52.2c0.05-0.47,0.59-0.71,1.02-0.5
			c2.87,1.38,12.31,5.16,23.74,1.71c0.42-0.12,0.62-0.6,0.4-0.97c-1.07-1.87-4.82-6.63-15.1-6.2c-1.06,0.04-1.43-1.38-0.49-1.87
			c6.51-3.45,13.67-6.64,21-7.31c2.31-0.21,3.49,2.44,1.79,3.94c-1.46,1.28-2.31,2.92-2.59,4.71c-0.01,0.04-0.01,0.09,0,0.13
			c0.2,0.82,0.69,1.61,1.65,2.32c2.83,2.06,6.19-2.32,12.04,1.54c4.08,2.69,8.1,3.39,10.18,3.59c0,0,0.03,0,0.05,0
			c0.01,0,0.03,0.01,0.04,0.01V276z M439.46,295.61c0.62-0.46,0.12-1.4-0.62-1.16c-5.5,1.75-17.52,4.48-26.56-1.21v-0.02
			c-0.01,0-0.02,0.01-0.02,0.01c-0.01,0-0.02-0.01-0.02-0.01v0.02c-9.04,5.69-21.06,2.96-26.56,1.21c-0.74-0.24-1.24,0.71-0.63,1.16
			c2.83,2.09,6.94,3.94,11.68,5.27c4.74,1.34,10.13,2.15,15.51,2.15c0,0,0.01,0,0.02,0c0,0,0.01,0,0.02,0
			C423.04,303.03,433.81,299.77,439.46,295.61z"/>
	</g>
	<g>
		<path class="st3" d="M398.19,243.13c-0.78,7.74,0.39,14.12,1.4,17.88c0.21,0.74-0.83,1.14-1.25,0.5
			c-4.29-6.55-6.72-15.84-7.42-18.62c-0.1-0.41-0.59-0.6-0.98-0.38c-5.98,3.23-12.3,4.77-19.09,5.12c-0.55,0.02-0.71-0.77-0.17-0.94
			c3.6-1.1,7.04-2.59,10.34-4.33c0.85-0.46,0.54-1.75-0.42-1.77c-9.42-0.22-23.56-0.88-27.72-1.09c-0.3-0.01-0.37-0.42-0.09-0.53
			c5.38-2.16,14.92-3.63,17.73-3.94c0.52-0.05,0.73-0.6,0.45-1.02c-0.32-0.47-1.96-1.37-4-1.62c-4.42-0.53-13.55,0.76-13.33,0.64
			c1.29-0.74,2.6-1.42,3.9-2.04c0.02-0.01,0.03-0.02,0.05-0.03c2.5-2,5.14-3.83,7.92-5.43c2.45-1.76,5.35-3.34,8.36-3.98
			c0.15-0.05,0.29-0.11,0.44-0.16c0.33-0.12,0.61-0.12,0.86-0.04c0.23-0.02,0.47-0.07,0.7-0.08c7.89-0.46,13.31,4.63,15.82,7.67
			c0.45,0.53,1.32,0.13,1.21-0.54c-2.95-17.25-13.41-20.36-22.05-15.94c-5,2.56-12.59,8.8-16.67,12.28
			c-0.57,0.49-1.41-0.14-1.05-0.79c3.14-5.71,9.77-17.19,13.5-19.86c7.78-5.55,12.58-3.65,16.8-2.98
			c14.89,2.35,17.55,26.7,17.77,29.06c-0.01,0.12-0.03,0.24-0.04,0.36c-0.62,1.64-1.13,3.25-1.54,4.84
			c-0.36,1.32-0.64,2.62-0.87,3.88C398.49,240.57,398.31,241.87,398.19,243.13z"/>
	</g>
	<g>
		<path class="st4" d="M439.46,295.61c0.62-0.46,0.12-1.4-0.62-1.16c-5.5,1.75-17.52,4.48-26.56-1.21v-0.02
			c-0.01,0-0.02,0.01-0.02,0.01c-0.01,0-0.02-0.01-0.02-0.01v0.02c-9.04,5.69-21.06,2.96-26.56,1.21c-0.74-0.24-1.24,0.71-0.63,1.16
			c2.83,2.09,6.94,3.94,11.68,5.27c4.74,1.34,10.13,2.15,15.51,2.15c0,0,0.01,0,0.02,0c0,0,0.01,0,0.02,0
			C423.04,303.03,433.81,299.77,439.46,295.61z"/>
	</g>
	<g>
		<path class="st3" d="M482.38,474.69c0-2.78-2.26-5.04-5.04-5.04c-0.25,0-0.49,0.04-0.72,0.08c1.22-0.57,2.58-0.89,4.01-0.89
			c5.31,0,9.6,4.3,9.6,9.6c0,5.31-4.3,9.61-9.6,9.61c-5.31,0-9.6-4.31-9.6-9.61c0-1.87,0.54-3.61,1.47-5.09
			c-0.12,0.42-0.21,0.87-0.21,1.34c0,2.78,2.26,5.05,5.05,5.05C480.12,479.73,482.38,477.47,482.38,474.69z"/>
	</g>
	<g>
		<path class="st3" d="M472.3,535.54c-5.31,0-9.6-4.3-9.6-9.6c0-1.5,0.35-2.91,0.97-4.18c-0.02,0.2-0.07,0.39-0.07,0.61
			c0,2.77,2.26,5.04,5.05,5.04c2.77,0,5.04-2.26,5.04-5.04c0-2.78-2.26-5.05-5.04-5.05c-0.26,0-0.5,0.04-0.74,0.08
			c1.32-0.67,2.81-1.07,4.39-1.07c5.31,0,9.61,4.3,9.61,9.6S477.61,535.54,472.3,535.54z"/>
	</g>
	<g>
		<path class="st3" d="M463.97,587.74c-5.31,0-9.61-4.3-9.61-9.6c0-1.37,0.29-2.66,0.8-3.85c-0.04,0.27-0.08,0.54-0.08,0.83
			c0,2.77,2.25,5.04,5.04,5.04c2.78,0,5.04-2.26,5.04-5.04c0-2.78-2.25-5.05-5.04-5.05c-0.67,0-1.3,0.14-1.89,0.38
			c1.6-1.2,3.58-1.91,5.74-1.91c5.3,0,9.6,4.3,9.6,9.6C473.57,583.45,469.26,587.74,463.97,587.74z"/>
	</g>
	<path class="st2" d="M329.81,270.9c-9.73-10.1-0.02-14.71-0.33-20.49c-0.32-5.89-7.97-15.25-10.18-18.4
		c-0.17-0.24-0.14-0.51,0-0.72c0.03-0.05,0.07-0.09,0.12-0.13c-2.7,3.71,1.92,31.99,10.46,39.93
		C329.88,271.02,329.86,270.95,329.81,270.9z M320.04,231.01l2.03,0.62C321.37,231.21,320.7,230.97,320.04,231.01z"/>
	<path class="st2" d="M497.67,267.09c0,0,1.22-1.9,2.04-3.53c0.82-1.63,4.08-11.28,5.85-19.85c1.76-8.51-0.07-12.64-0.09-12.69
		c-2.21,3.16-10.18,13.49-10.49,19.39c-0.27,4.98,6.9,9.09,2.66,16.61C497.66,267.06,497.67,267.09,497.67,267.09z"/>
	<path class="st5" d="M565.71,521.16c0.49,0.11,0.94,0.29,1.37,0.52c7.59-28.69,21.62-55.48,28.75-65.38
		c-11.46,11.27-30.02,40.92-65.39,88.94l30.89-23.13C562.57,521.18,564.17,520.83,565.71,521.16z"/>
	<path class="st5" d="M370.83,458.37c-8.58,2.93-18.53,4.86-27.55,5.4c-3.87,4.13-37.5,40.81,9.42,19.92
		c49.67-22.11,59.11-56,59.11-56C401.71,441.79,387.6,452.65,370.83,458.37z"/>
	<path class="st5" d="M468.35,476.81c0,0-1.45-8.34,7.98-10.88c4.12-1.11,1.64-5.91-0.84-8.74c-0.13,0-0.27,0-0.39,0
		c-5.26,0-15.88-0.61-27.74-4.67c-15.42-5.26-27.13-13.78-34.89-24.55l-0.66-0.28C411.81,427.7,417.24,472.82,468.35,476.81z"/>
	<path class="st5" d="M231.8,458.63c-0.9-1.71-1.68-3.08-2.3-4.04C230.24,455.9,231.01,457.25,231.8,458.63z M334.13,581.13
		c-27.83-1.82-42.69-13.32-60.26-47.25c-17.8-34.37-31.87-57.47-42.06-75.25c8.73,16.66,28.71,66.21,29.29,93.86
		c1.44,0.22,5.71,0.17,9.74,5.14l0,0c0.17,0.2,0.33,0.42,0.49,0.64l0,0c0.16,0.22,0.33,0.45,0.49,0.68
		c0.01,0.02,0.02,0.03,0.03,0.05c0.15,0.22,0.3,0.46,0.45,0.7c0.02,0.03,0.04,0.06,0.06,0.09c0.14,0.23,0.28,0.46,0.42,0.71
		c0.04,0.07,0.08,0.15,0.12,0.22c0.12,0.21,0.24,0.42,0.35,0.64c0.06,0.11,0.12,0.24,0.18,0.35c0.1,0.19,0.19,0.38,0.29,0.57
		c0.08,0.17,0.16,0.36,0.25,0.53c0.07,0.15,0.14,0.3,0.21,0.46c0.15,0.34,0.3,0.69,0.44,1.06c0.14,0.36,0.29,0.76,0.43,1.18
		c0.13,0.38,0.26,0.79,0.39,1.21c0.01,0.04,0.02,0.07,0.03,0.11c0.28,0.93,0.55,1.97,0.81,3.1c1.72,7.38,2.92,18.74,1.76,31.07
		c-0.79,8.3,7.92,14.28,15.36,10.53c1.12-0.57,2.25-1.12,3.38-1.66c0.32-0.15,0.65-0.31,0.97-0.46c1.09-0.51,2.18-1.02,3.29-1.5
		c0.05-0.02,0.1-0.04,0.15-0.06c1.25-0.54,2.51-1.07,3.8-1.57c0.02-0.01,0.05-0.02,0.07-0.03c1.3-0.51,2.61-0.99,3.96-1.46
		c8.42-2.9,17.98-4.94,30.5-5.71h0.15c0.54-0.01,65.21,0.63,99.91,2.72c13.02,0.78,21.62-0.58,29.28-2.09
		c7.2-1.41,13.54-6.6,14.53-13.88c0.27-2.03,0.55-4.03,0.83-6.01C477.69,598.8,440.89,588.11,334.13,581.13z"/>
	<path class="st2" d="M616.76,686.79c-0.23,0.04-0.45,0.06-0.68,0.11C616.08,686.9,616.33,686.86,616.76,686.79z M670.07,693.24
		c-9.79-39.87-43.74-59.81-59.24-68.51c-6.05-3.4-25.41-14.06-55.39-20.52c20.68,7.38,50.04,20.43,68.53,48.71
		c17.76,27.16-2.5,33.48-7.21,33.88c52.89-4.52,51.33,13.44,55.95,21.11C672.35,703.08,671.19,697.81,670.07,693.24z"/>
	<path class="st5" d="M264.39,625.18L264.39,625.18c0,0-28.87-4.89-71.97,8.97c-22.93,7.38-32.58,18.74-41.55,20.66
		c-11.42,2.45-17.07-0.23-20.39-11.62c0.02,0.99,0.04,1.96,0.08,2.92c0.8,22.24,7.71,34.01,13.54,37.68
		c0.07-0.08,0.15-0.14,0.22-0.23c4.01-4.82,8.9-10.17,14.64-15.62c17.48-16.58,46.64-37.27,86.34-41.74
		C251.68,625.49,258.02,625.14,264.39,625.18z"/>
	<path class="st5" d="M676.75,663.04c5.82-3.89,12.68-15.39,14.16-36.84c0.07-0.96,0.12-1.93,0.17-2.92
		c-3.69,11.27-9.43,13.77-20.76,10.94c-8.91-2.22-18.18-13.89-40.85-22.02c-16.17-5.8-30.38-8.82-41.79-10.35
		c-0.14,0.13-0.28,0.25-0.42,0.38c5.82,1.96,11.74,4.13,17.65,6.55C641.71,623.84,665.63,641.18,676.75,663.04z"/>
	<path class="st5" d="M527.15,175.97c0.28,0.08,0.27,0.48-0.02,0.53c-7.62,1.47-15.32,0.58-21.45-3.5c-0.17-0.12-0.42,0-0.42,0.22
		l-0.29,26.15c0,0.12,0.08,0.28,0.21,0.27c11.22-0.88,19.34-4.81,22.64-8.68C535.06,182.44,527.15,175.97,527.15,175.97z
		 M299.98,109.7c12.16,12.52,28.54,21.05,45.79,25.03c26.38,6.08,23.18,0.36,22.09-0.36c-2.1-1.36-29.71-27.78-30.82-55.84
		C334.67,133.32,305.03,111.35,299.98,109.7z M299.15,109.41c16.22,46.2-5.5,31.26-10.36,30.2c11.54,10.51,30.46,11.81,43.32,8.79
		C337.55,147.12,309.56,139.07,299.15,109.41z M465.63,128.6c-35.79-4.85-33.4-44.68-55.65-30.63
		c-41.33,26.1-72.94-19.44-72.94-19.44c0.05,0,10.97,25.12,30.02,37.58c28.23,18.47,56.23,19.62,49.04-10.65
		c-0.08-0.32,0.36-0.49,0.51-0.2c6.62,12.51,25.62,26.04,45.33,32.87c14.75,5.12,16.62,2.66,32.45,10.9
		c4.5,2.34,8.55,5.78,12.31,9.44C498.77,147.88,504.42,133.86,465.63,128.6z M313.55,161.78c-10.59-3.85-20.82-13.09-26.02-22.49
		c0,0,13,17.84,8.25,23.94c-3.17,4.08,21.43,20.7,24.49,21.49c0.17,0.04,0.35-0.08,0.35-0.26
		C320.68,181.77,320.71,164.38,313.55,161.78z"/>
	<path class="st2" d="M423.32,712.67c-0.21,0.32-0.45,0.62-0.73,0.9C422.87,713.29,423.11,712.99,423.32,712.67z M423.32,712.67
		C423.32,712.67,423.32,712.67,423.32,712.67C423.32,712.67,423.32,712.67,423.32,712.67L423.32,712.67z M422.18,706.54
		c-0.01,0-12-10.91-31.55-24.08l-1.31-0.45c0,0,24.34,15.31-8.16,22.84c-64.17,14.86-129.97,2.18-151.72,1.09
		c-21.75-1.09-40.3,4.09-45.68,3.26c-14.14-2.18-8.16-21,8.43-32.36c18.4-12.6,78.58-9.79,78.58-9.79s-42.09-4.86-36.43-17.67
		c4.08-9.24,23.91-11.87,34.88-12.29c-7.25-0.26-14.56-0.02-21.87,0.87c-34.54,4.17-60.88,23.74-78.31,42.6
		c-8.5,9.19-18.18,26.25-13.39,37.83c0.48,1.14,0.96,2.09,1.42,2.77c5.62,8.18,22.54,4.92,31.58,4.42c1.25-0.07,2.48,0.29,3.49,1.02
		c0,0,43.99,20.03,105.26,16.04c60.29-3.92,109.32-18.14,125.9-29.97C424.64,710.63,424.43,708,422.18,706.54z"/>
	<path class="st2" d="M645.13,731.49L645.13,731.49L645.13,731.49L645.13,731.49z M645.13,731.49c-0.72,0.09-1.42,0.34-2.05,0.7
		C644.42,731.78,645.1,731.5,645.13,731.49z M522.73,714.27c-11.78-3.46-27.02-9.2-38.07-14.88c-11.95-6.15-7.97-10.86,2.75-10.28
		c60.07,3.24,126.32-2.39,126.32-2.39s-105.86-4.17-161.33-21.57c-28.21-8.85-58.8-17.84-82.06-24.54
		c-26.41-9.95-54.64-16.03-86.27-14.27v0c63.46,7.04,122.2,45.16,159.83,69.6c3.34,2.17,6.73,4.33,10.17,6.49
		c21.78,12.24,75.97,32.07,106.55,36.67c36.16,5.44,62.16,0.85,82.06-6.65c-0.1,0.07-0.2,0.12-0.3,0.2c0.22-0.17,0.45-0.33,0.7-0.47
		C625.69,732.39,583.27,732.03,522.73,714.27z"/>
	<path class="st5" d="M344.81,154.68c-3.27,1.01-6.27,2.12-8.94,3.32l0.53,26.61L344.81,154.68z"/>
	<path class="st5" d="M489.12,158.08c-2.39-1.08-5.04-2.09-7.92-3.02l8.54,30.65L489.12,158.08z"/>
	<path class="st5" d="M155.69,566.35c4.32-1.71,8.79-3.33,13.43-4.84c2.08-59.95,35.13-114.43,35.13-114.43
		C168.61,481.76,157.71,550.97,155.69,566.35z"/>
	<path class="st5" d="M624.06,451.8c0,0,23.47,44.62,28.28,98.23c4.46,1.62,8.93,3.53,13.33,5.78
		C661.09,530.05,648.08,478.29,624.06,451.8z"/>
	<path class="st5" d="M492.17,594.49c0.04,0,0.09,0,0.13,0c26.44-112.6,41.12-146.31,41.12-146.31l-12.76-4.68
		c-6.69,21.96-21.47,75.95-29.99,148.96L492.17,594.49z"/>
</g>
</svg>
